<?xml version="1.0" standalone="no"?>
<!DOCTYPE svg PUBLIC "-//W3C//DTD SVG 20010904//EN"
 "http://www.w3.org/TR/2001/REC-SVG-20010904/DTD/svg10.dtd">
<svg version="1.0" xmlns="http://www.w3.org/2000/svg"
 width="900.000000pt" height="1032.000000pt" viewBox="0 0 900.000000 1032.000000"
 preserveAspectRatio="xMidYMid meet">

<g transform="translate(0.000000,1032.000000) scale(0.100000,-0.100000)"
fill="#000000" stroke="none">
<path d="M2728 10307 c0 -6 -2 -17 -2 -22 -1 -6 -11 -25 -24 -42 -34 -48 -26
-48 16 -1 20 24 43 47 50 51 19 13 14 22 -13 25 -14 1 -26 -4 -27 -11z"/>
<path d="M3610 10301 c16 -31 32 -36 47 -16 20 29 16 35 -22 35 -32 0 -35 -2
-25 -19z"/>
<path d="M4139 10313 c-1 -5 -1 -16 0 -25 1 -9 -5 -30 -15 -45 -14 -24 -11
-22 15 7 51 57 56 70 26 70 -14 0 -26 -3 -26 -7z"/>
<path d="M4884 10288 c-69 -131 -238 -489 -259 -548 -55 -155 -81 -460 -52
-602 19 -89 46 -148 110 -234 101 -138 255 -253 406 -304 176 -59 310 -42 494
61 56 31 59 13 6 -34 -91 -84 -244 -134 -369 -122 -203 20 -397 118 -560 284
-139 142 -190 228 -212 358 -6 40 -15 73 -18 73 -8 0 -77 -316 -89 -410 -68
-524 64 -938 408 -1279 93 -93 252 -223 616 -506 294 -230 449 -360 604 -510
291 -282 469 -553 563 -854 77 -247 88 -590 27 -851 -62 -267 -205 -511 -443
-758 -102 -106 -188 -170 -363 -273 -76 -45 -172 -108 -213 -139 -77 -59 -215
-197 -285 -285 -76 -96 -147 -175 -167 -186 -19 -10 -19 -9 3 30 33 60 177
243 270 344 100 108 195 181 386 296 81 49 182 119 224 154 75 65 263 271 295
324 9 15 25 40 34 54 41 59 112 201 140 278 115 319 100 802 -35 1109 -118
269 -285 485 -585 758 -103 92 -296 245 -577 455 -572 427 -698 544 -856 790
-224 350 -281 794 -172 1324 35 171 127 454 233 721 23 55 44 114 47 130 4 16
10 38 15 49 5 11 21 49 36 85 16 36 48 98 71 139 24 40 42 75 40 77 -5 5 -152
-198 -230 -318 -334 -512 -512 -940 -576 -1383 -26 -174 -28 -460 -6 -610 50
-334 190 -646 395 -883 132 -152 379 -340 745 -565 443 -273 679 -465 828
-673 89 -124 152 -306 163 -469 17 -237 -87 -580 -250 -830 -150 -230 -412
-500 -775 -800 -505 -417 -746 -677 -885 -959 -91 -183 -121 -336 -113 -581 7
-225 47 -386 143 -580 69 -140 154 -253 290 -386 190 -184 373 -305 774 -512
391 -201 528 -271 575 -294 28 -14 58 -29 68 -34 92 -49 602 -300 671 -331 49
-21 102 -48 117 -59 26 -18 47 -19 378 -19 323 0 375 4 341 25 -13 8 -226 257
-331 385 -416 514 -630 1001 -691 1580 -16 149 -15 604 1 745 44 394 211 692
502 897 207 146 321 174 897 218 443 35 611 76 778 192 115 79 182 168 235
314 27 76 32 102 32 179 0 106 -13 140 -100 272 -147 225 -165 336 -72 445 53
64 89 131 89 170 0 67 -78 161 -144 173 -31 6 -69 2 -119 -12 -16 -4 -17 -2
-8 16 7 11 33 41 60 66 65 60 105 148 106 230 0 83 -18 108 -109 149 -117 54
-148 113 -150 286 -1 88 1 99 28 145 36 63 75 114 144 189 132 145 185 252
163 327 -22 73 -107 124 -541 324 -330 152 -525 297 -622 465 -77 131 -50 198
179 453 104 114 183 219 183 241 0 6 -12 -7 -27 -29 -15 -22 -32 -45 -37 -52
-109 -124 -184 -202 -193 -202 -23 -2 -14 34 23 95 51 84 80 143 92 187 13 47
6 48 -14 2 -36 -87 -178 -287 -259 -365 -43 -42 -48 -37 -65 59 -20 109 -78
300 -164 541 -9 25 -55 122 -101 215 -125 250 -291 484 -464 655 -217 214
-500 401 -774 512 -275 110 -437 152 -803 203 -56 8 -108 17 -117 21 -11 4
-21 -5 -33 -28z m-204 -848 c0 -5 -5 -10 -11 -10 -5 0 -7 5 -4 10 3 6 8 10 11
10 2 0 4 -4 4 -10z m-445 -9 c3 -5 1 -12 -5 -16 -5 -3 -10 1 -10 9 0 18 6 21
15 7z m415 -17 c0 -8 6 -14 13 -15 10 0 10 -2 0 -6 -7 -2 -13 -13 -13 -24 0
-10 -4 -19 -8 -19 -5 0 -9 20 -9 45 0 24 4 42 9 39 4 -3 8 -12 8 -20z m-460
-110 c0 -8 -4 -12 -10 -9 -5 3 -10 13 -10 21 0 8 5 12 10 9 6 -3 10 -13 10
-21z m477 -30 c-3 -3 -12 -4 -19 -1 -8 3 -5 6 6 6 11 1 17 -2 13 -5z m-507
-214 c0 -5 -4 -10 -10 -10 -5 0 -10 5 -10 10 0 6 5 10 10 10 6 0 10 -4 10 -10z
m-133 -214 c-3 -8 -1 -16 5 -18 12 -4 2 -28 -11 -28 -10 0 -21 47 -13 55 11
11 24 4 19 -9z m43 -22 c0 -14 -3 -14 -15 -4 -8 7 -15 14 -15 16 0 2 7 4 15 4
8 0 15 -7 15 -16z m-3 -65 c-8 -61 -22 -66 -22 -8 0 35 4 49 14 49 10 0 12
-10 8 -41z m1403 -64 c-7 -9 -15 -13 -17 -11 -7 7 7 26 19 26 6 0 6 -6 -2 -15z
m-1410 -185 c0 -5 -2 -10 -4 -10 -3 0 -8 5 -11 10 -3 6 -1 10 4 10 6 0 11 -4
11 -10z m-100 -430 c0 -5 -5 -10 -11 -10 -5 0 -7 5 -4 10 3 6 8 10 11 10 2 0
4 -4 4 -10z m0 -75 c0 -8 -4 -15 -10 -15 -5 0 -7 7 -4 15 4 8 8 15 10 15 2 0
4 -7 4 -15z m40 -95 c0 -5 -4 -10 -9 -10 -6 0 -13 5 -16 10 -3 6 1 10 9 10 9
0 16 -4 16 -10z m-13 -42 c-3 -8 -6 -5 -6 6 -1 11 2 17 5 13 3 -3 4 -12 1 -19z
m8 -68 c-3 -5 -12 -10 -18 -10 -7 0 -6 4 3 10 19 12 23 12 15 0z m34 -209 c8
-5 9 -11 3 -15 -5 -3 -15 1 -22 9 -14 16 -3 20 19 6z m121 -211 c0 -5 -4 -10
-10 -10 -5 0 -10 5 -10 10 0 6 5 10 10 10 6 0 10 -4 10 -10z m385 -30 c3 -5 1
-10 -4 -10 -6 0 -11 5 -11 10 0 6 2 10 4 10 3 0 8 -4 11 -10z m895 -610 c0 -5
-4 -10 -10 -10 -5 0 -10 5 -10 10 0 6 5 10 10 10 6 0 10 -4 10 -10z m40 -3400
c0 -5 -4 -10 -10 -10 -5 0 -10 5 -10 10 0 6 5 10 10 10 6 0 10 -4 10 -10z"/>
<path d="M3947 10303 c-4 -3 -7 -11 -7 -17 0 -6 5 -5 12 2 6 6 9 14 7 17 -3 3
-9 2 -12 -2z"/>
<path d="M3410 10263 c-50 -19 -213 -140 -314 -233 -83 -76 -101 -93 -147
-145 -60 -68 -27 -41 85 70 122 121 276 239 276 213 0 -10 2 -10 9 0 4 8 11
14 14 14 3 0 26 20 51 44 26 24 45 44 44 43 -2 0 -10 -3 -18 -6z"/>
<path d="M3598 10223 c-9 -10 -21 -29 -28 -43 -7 -14 -26 -42 -42 -62 -16 -20
-25 -39 -20 -42 4 -2 23 21 41 52 19 31 43 67 54 79 11 13 18 25 15 28 -2 3
-12 -3 -20 -12z"/>
<path d="M3852 10173 c-34 -46 -38 -61 -12 -39 15 11 53 77 48 81 -2 1 -18
-18 -36 -42z"/>
<path d="M4086 10183 c-6 -14 -5 -15 5 -6 7 7 10 15 7 18 -3 3 -9 -2 -12 -12z"/>
<path d="M2580 10079 c-47 -60 -92 -119 -100 -131 -8 -11 -24 -30 -36 -42 -11
-12 -24 -34 -28 -49 -4 -15 -11 -25 -16 -22 -6 3 -10 -2 -10 -12 0 -10 -16
-45 -36 -77 -45 -75 -114 -212 -114 -227 0 -6 17 20 37 58 20 37 47 86 60 108
12 22 28 51 35 65 7 14 15 27 18 30 4 3 22 30 41 60 18 31 72 108 119 173 146
202 163 239 30 66z"/>
<path d="M4029 10105 c-13 -19 -29 -35 -35 -35 -6 0 -17 -15 -24 -32 -29 -76
-42 -98 -58 -98 -14 0 -14 -2 -3 -9 7 -5 10 -14 7 -20 -4 -6 -5 -11 -3 -11 3
0 25 33 99 150 51 82 65 125 17 55z"/>
<path d="M3477 10049 c-9 -6 -17 -19 -17 -29 0 -10 -6 -23 -13 -27 -8 -4 -17
-19 -20 -33 -6 -24 -5 -24 19 5 27 33 57 85 52 90 -2 2 -11 -1 -21 -6z"/>
<path d="M3710 9965 c-7 -9 -11 -17 -9 -20 3 -2 10 5 17 15 14 24 10 26 -8 5z"/>
<path d="M3406 9915 c-9 -26 -7 -32 5 -12 6 10 9 21 6 23 -2 3 -7 -2 -11 -11z"/>
<path d="M3678 9913 c-8 -10 -28 -40 -43 -68 -24 -45 -24 -47 -3 -21 27 34 71
106 65 106 -2 0 -11 -8 -19 -17z"/>
<path d="M3891 9883 c-1 -7 -8 -10 -16 -7 -11 5 -15 -1 -15 -25 0 -17 5 -31
10 -31 13 0 32 49 26 64 -3 7 -5 7 -5 -1z"/>
<path d="M2832 9745 c-29 -35 -52 -67 -52 -71 0 -4 -7 -16 -17 -26 -9 -10 -14
-18 -10 -18 6 0 93 109 121 153 31 47 12 30 -42 -38z"/>
<path d="M3816 9740 c-37 -73 -42 -85 -28 -76 13 8 76 136 70 141 -3 3 -22
-26 -42 -65z"/>
<path d="M3754 9612 c-12 -20 -24 -50 -27 -67 -4 -18 6 -5 24 33 34 70 36 92
3 34z"/>
<path d="M2190 9428 c-12 -24 -28 -47 -36 -51 -8 -4 -14 -17 -14 -27 0 -18 -8
-42 -31 -95 -5 -11 -15 -40 -23 -65 -7 -25 -17 -54 -21 -65 -6 -14 -5 -17 3
-10 6 6 22 40 36 78 14 37 32 82 40 100 53 116 76 171 72 174 -2 2 -14 -15
-26 -39z"/>
<path d="M3134 9408 c-9 -18 -20 -35 -23 -38 -3 -3 -20 -32 -37 -65 -17 -33
-37 -60 -44 -60 -17 0 -32 -63 -17 -68 7 -2 6 -10 -1 -23 -6 -10 -12 -13 -12
-6 0 16 -30 16 -30 -1 0 -7 5 -18 11 -24 17 -17 -11 -72 -39 -80 -17 -4 -21
-10 -16 -22 14 -34 15 -47 5 -71 -7 -18 -10 -20 -10 -7 -1 19 -21 24 -22 5 0
-7 -3 -22 -5 -33 -3 -11 -5 -30 -6 -42 0 -12 -9 -23 -19 -26 -12 -3 -17 -11
-14 -19 3 -8 -1 -21 -10 -28 -12 -10 -13 -15 -4 -21 14 -8 -4 -63 -29 -88 -7
-7 -11 -20 -8 -27 3 -7 1 -16 -4 -19 -7 -4 -6 -13 0 -26 6 -10 9 -19 7 -19
-14 0 -68 34 -77 48 -8 14 -10 14 -11 2 0 -8 -5 1 -9 20 -5 21 -5 36 1 38 12
5 12 32 0 32 -5 0 -11 -7 -15 -15 -3 -8 -11 -15 -18 -15 -9 0 -9 3 -2 8 14 10
26 42 15 42 -5 0 -12 -6 -14 -12 -4 -10 -8 -10 -15 1 -5 7 -14 11 -20 7 -6 -3
-13 -2 -17 4 -3 6 0 13 8 16 8 3 13 13 10 23 -6 25 -48 16 -73 -17 -11 -14
-23 -23 -25 -20 -3 3 6 17 20 31 15 14 25 31 24 39 -3 28 2 36 26 42 14 4 23
11 20 16 -4 6 -17 4 -35 -5 -31 -16 -54 -20 -31 -6 7 5 15 21 17 37 1 16 9 33
16 39 16 11 32 45 29 59 -1 5 3 12 10 16 8 6 8 13 -1 30 -8 15 -8 20 -1 16 6
-4 11 -5 11 -3 0 7 -43 90 -50 97 -3 3 -7 14 -8 25 -2 11 -13 26 -24 34 -16
11 -19 21 -15 47 3 19 4 34 1 34 -8 0 -110 -220 -157 -340 -119 -305 -183
-567 -218 -895 -56 -515 27 -944 248 -1285 31 -47 76 -110 102 -140 49 -57
297 -328 317 -345 6 -5 35 -39 64 -75 29 -36 73 -87 96 -115 104 -121 200
-300 240 -445 38 -142 44 -339 15 -483 -54 -263 -152 -447 -328 -618 -167
-162 -304 -234 -519 -275 -173 -32 -423 2 -567 78 -196 104 -325 345 -297 559
24 188 141 370 279 432 93 41 219 28 346 -35 102 -52 335 -239 335 -270 0 -4
-48 27 -107 69 -139 97 -190 126 -288 164 -72 28 -88 31 -165 27 -102 -5 -149
-26 -207 -92 -84 -95 -133 -234 -133 -373 1 -249 265 -453 586 -453 229 0 472
106 660 287 120 116 193 229 245 378 58 166 51 390 -18 555 -81 197 -147 282
-476 617 -354 360 -470 521 -585 818 -202 522 -211 1101 -26 1810 14 55 30
109 34 120 19 43 31 96 27 108 -3 6 -6 3 -6 -8 -1 -11 -10 -26 -21 -33 -11 -7
-17 -18 -14 -27 8 -19 -15 -76 -36 -92 -8 -7 -30 -11 -48 -11 -26 1 -31 5 -27
19 4 10 -1 21 -11 27 -11 6 -13 11 -5 16 37 23 -13 30 -56 8 -22 -12 -75 -13
-67 -1 3 5 -1 9 -10 9 -8 0 -16 3 -18 8 -5 11 -64 42 -82 42 -9 0 -19 7 -22
15 -4 8 -10 15 -16 15 -5 0 -6 -4 -3 -10 3 -5 1 -10 -4 -10 -6 0 -11 4 -11 9
0 5 -9 7 -21 4 -12 -3 -24 -1 -28 5 -5 8 -15 7 -35 -3 -15 -8 -33 -12 -39 -8
-33 20 -69 7 -125 -47 -8 -7 -24 -15 -36 -15 -11 -1 -39 -2 -61 -3 -42 -3 -90
-30 -67 -39 17 -6 15 -30 -3 -37 -8 -3 -20 -17 -27 -31 -8 -17 -19 -25 -37
-25 -31 0 -46 -10 -46 -29 0 -18 -54 -34 -70 -21 -6 5 -20 7 -30 6 -11 -2 -25
1 -32 6 -7 6 -19 6 -31 -1 -22 -12 -105 -4 -110 10 -2 5 -8 7 -13 3 -12 -7
-41 22 -37 38 4 22 -46 88 -67 88 -20 1 -20 1 -1 15 19 15 19 16 -6 19 -7 0
-14 10 -16 20 -6 27 -28 47 -45 40 -8 -3 -18 0 -23 7 -4 8 -3 10 4 5 16 -10
14 5 -3 27 -7 11 -11 25 -8 33 3 9 -1 14 -12 14 -12 0 -15 5 -10 20 4 11 2 20
-4 20 -6 0 -15 -19 -22 -42 -6 -24 -16 -54 -21 -68 -6 -14 -12 -36 -15 -50 -2
-14 -32 -68 -67 -120 -34 -52 -65 -103 -69 -112 -7 -21 -36 -24 -42 -5 -2 6
-6 35 -9 62 -9 84 -18 125 -28 125 -6 0 -8 7 -4 15 3 8 2 15 -3 15 -13 0 -28
64 -21 85 4 11 1 42 -7 68 -8 27 -12 52 -9 55 3 3 6 -1 6 -9 0 -11 2 -11 10 1
16 24 12 30 -20 30 -16 0 -30 5 -30 11 0 5 4 8 9 4 5 -3 12 -1 15 4 3 5 -4 11
-17 15 -16 4 -19 8 -9 14 11 7 10 17 -2 52 -8 24 -13 47 -10 52 3 4 -7 13 -21
18 -35 13 -38 13 -31 -5 3 -9 0 -15 -10 -15 -8 0 -12 -5 -9 -11 4 -6 -3 -21
-15 -33 -19 -21 -20 -25 -6 -39 21 -20 21 -33 0 -16 -12 10 -17 10 -23 0 -6
-9 -10 -6 -15 11 l-7 23 -11 -25 c-6 -14 -12 -33 -13 -42 -1 -10 -9 -26 -18
-35 -14 -16 -16 -74 -16 -507 l-1 -489 20 26 c11 14 20 30 20 36 0 6 8 11 18
11 15 0 15 2 2 10 -13 9 -10 15 19 39 18 16 30 34 27 40 -4 6 -2 11 3 11 18 0
12 18 -7 23 -14 4 -14 5 3 6 22 1 105 -88 105 -112 0 -8 -10 -21 -22 -30 -13
-8 -60 -51 -105 -96 l-83 -82 0 -505 c0 -334 3 -503 10 -499 6 3 10 18 10 33
0 37 48 178 66 192 8 7 14 21 14 32 0 11 7 44 16 74 12 41 20 54 35 54 10 0
19 -7 19 -15 0 -8 -4 -15 -10 -15 -5 0 -10 -7 -10 -15 0 -8 5 -15 11 -15 6 0
9 -7 6 -15 -4 -8 -1 -17 4 -21 7 -4 8 -23 4 -50 -4 -27 -2 -44 4 -44 5 0 9
-14 9 -32 -1 -18 4 -34 10 -36 17 -5 15 -32 -3 -32 -8 0 -12 6 -9 14 3 9 -4
15 -21 18 -17 4 -24 2 -20 -6 3 -6 8 -19 11 -29 5 -13 14 -17 28 -15 12 3 28
-2 35 -10 20 -21 36 0 21 28 -7 13 -8 20 -2 16 6 -3 13 -2 17 4 8 13 25 13 25
0 0 -5 -7 -10 -16 -10 -8 0 -12 -5 -9 -10 4 -6 11 -8 16 -5 5 4 6 -7 3 -23 -4
-17 -1 -32 5 -36 20 -12 12 -28 -10 -21 -12 4 -19 3 -16 -2 3 -5 -5 -42 -19
-83 -13 -41 -24 -85 -24 -97 0 -13 -8 -49 -19 -80 -10 -32 -26 -94 -36 -138
-23 -104 -46 -178 -60 -188 -5 -4 -21 -6 -35 -6 -65 4 -60 46 -60 -457 0 -250
4 -463 9 -472 5 -10 5 -41 -1 -76 -8 -43 -7 -65 1 -78 6 -10 11 -63 12 -126 0
-59 1 -129 2 -157 1 -35 -2 -49 -10 -48 -10 2 -13 -185 -13 -911 l0 -914 33
-6 c17 -3 46 -2 64 3 50 15 180 24 186 14 3 -5 0 -36 -8 -69 -8 -32 -14 -77
-15 -99 0 -22 -14 -125 -30 -230 -16 -104 -30 -209 -30 -231 0 -42 -14 -58
-43 -50 -6 3 -45 7 -85 10 l-72 6 0 -615 c1 -356 5 -615 10 -615 9 0 23 18 26
33 1 4 2 10 3 14 0 4 6 2 13 -5 7 -7 20 -12 30 -12 19 0 21 -34 3 -36 -6 -1
-9 2 -8 6 1 4 -6 6 -17 3 -12 -3 -17 -10 -12 -21 5 -15 4 -15 -11 -3 -9 7 -18
12 -18 10 -1 -2 -3 -13 -5 -24 -2 -11 -7 -35 -10 -52 -5 -28 -3 -33 12 -33 12
0 15 -3 8 -8 -6 -4 -11 -14 -11 -22 0 -8 -4 -24 -9 -34 -6 -16 -4 -18 10 -13
10 4 22 7 27 7 5 0 9 6 9 14 0 8 7 17 16 20 24 9 28 7 14 -9 -15 -18 -1 -20
34 -4 13 6 22 17 20 24 -3 7 -1 16 5 20 7 3 11 -2 11 -14 0 -19 10 -16 101 31
60 30 107 62 117 77 10 14 27 37 39 51 47 55 193 259 215 300 30 57 49 61 71
15 9 -20 17 -40 17 -46 0 -6 7 -17 16 -26 8 -9 13 -22 10 -29 -3 -8 1 -14 8
-14 8 0 16 -9 19 -20 3 -11 22 -26 46 -36 32 -13 40 -20 36 -34 -3 -10 -1 -21
5 -25 22 -14 22 5 0 47 -12 24 -16 37 -9 30 17 -16 26 -15 33 4 4 10 2 13 -6
8 -8 -5 -9 -2 -5 10 4 10 7 24 7 33 0 11 7 13 30 8 19 -4 30 -3 30 4 0 6 -7
11 -17 11 -26 0 -6 13 22 15 18 0 24 -4 20 -15 -2 -8 0 -22 6 -30 9 -13 10
-13 8 0 -2 26 13 60 27 60 17 0 18 -12 2 -28 -14 -14 -4 -26 32 -37 22 -7 24
-6 11 9 -8 9 -21 14 -30 11 -9 -3 0 7 19 22 19 16 42 35 50 43 11 11 27 13 60
9 26 -4 48 -2 51 4 4 5 19 7 35 4 15 -3 39 -1 53 5 18 6 27 6 29 -2 3 -8 8 -8
18 1 7 6 20 9 28 6 18 -7 31 10 35 47 2 25 0 28 -18 23 -18 -4 -19 -2 -10 15
6 11 8 31 5 44 -4 13 -2 24 4 24 5 0 13 12 16 26 5 19 9 22 15 13 4 -8 4 -18
-1 -23 -16 -16 -12 -23 20 -36 17 -7 30 -19 30 -27 0 -12 -3 -13 -15 -3 -8 6
-19 9 -25 5 -14 -9 19 -35 36 -28 7 2 18 -5 24 -17 9 -17 14 -19 26 -9 8 6 14
21 14 33 0 13 21 44 51 74 54 55 55 62 9 110 -16 17 -19 27 -12 34 8 8 16 7
27 -2 12 -10 15 -10 15 0 0 8 3 10 7 7 9 -9 35 44 29 59 -3 8 0 11 9 8 10 -4
12 4 10 32 -2 21 1 44 6 51 6 7 8 17 5 22 -4 5 2 16 11 23 25 19 43 53 43 82
0 14 4 27 10 31 5 3 7 11 5 18 -5 13 11 44 19 37 4 -5 -24 -114 -39 -152 -4
-10 -15 -18 -24 -18 -13 0 -13 -2 -2 -9 15 -10 11 -38 -19 -136 -10 -33 -24
-80 -31 -105 -12 -39 -131 -231 -178 -284 -9 -10 -104 -98 -211 -195 -107 -96
-243 -224 -301 -283 -59 -59 -122 -115 -140 -123 -19 -8 -29 -14 -22 -15 7 0
10 -7 7 -15 -9 -22 4 -18 33 11 32 32 38 26 19 -20 -13 -32 -28 -49 -25 -28 3
19 -2 23 -16 12 -9 -7 -15 -8 -15 -2 0 5 -7 13 -16 16 -9 4 -13 2 -8 -5 4 -6
0 -15 -7 -20 -10 -6 -11 -11 -3 -16 8 -6 13 -108 4 -108 -1 0 -3 -16 -6 -35
-10 -77 -21 -94 -82 -120 -31 -13 -79 -38 -107 -56 -27 -17 -77 -45 -111 -62
-71 -36 -84 -50 -95 -100 -4 -20 -14 -64 -23 -97 -20 -79 -20 -91 -1 -75 8 6
19 9 25 5 5 -3 10 1 10 11 0 11 6 15 20 11 10 -3 19 -2 18 2 -4 30 4 43 22 38
11 -3 20 -2 20 3 0 4 9 10 20 13 15 4 20 14 20 40 0 19 7 40 15 47 18 15 20
-1 3 -18 -9 -9 -9 -12 0 -12 6 0 14 11 18 25 5 20 9 23 20 14 8 -6 11 -15 8
-20 -8 -13 9 -10 30 6 10 8 15 19 10 26 -5 8 -3 10 5 5 8 -5 14 0 18 13 4 17
9 19 25 10 11 -6 26 -8 33 -5 12 4 25 -13 25 -34 0 -7 -262 -203 -352 -262
-23 -15 -51 -36 -62 -46 -13 -12 -43 -22 -81 -26 -33 -4 -91 -14 -130 -24
l-70 -17 -3 -88 -3 -87 151 0 c142 0 150 1 150 19 0 30 19 35 26 6 l6 -25 860
0 c780 0 860 1 854 16 -3 9 -6 22 -6 30 0 8 -6 14 -14 14 -8 0 -16 7 -20 15
-3 8 -1 15 4 15 5 0 11 8 14 18 5 13 18 17 57 18 l51 1 -32 -13 c-18 -8 -36
-11 -41 -8 -13 8 -11 -10 3 -24 9 -9 9 -12 0 -12 -7 0 -12 -4 -12 -9 0 -6 9
-9 19 -8 10 0 17 6 15 12 -5 13 33 51 42 42 3 -3 2 -12 -2 -19 -5 -7 -10 -20
-11 -29 -2 -14 1 -15 22 -5 13 6 30 21 36 33 7 13 20 23 30 23 11 0 20 11 24
30 4 17 10 28 15 25 9 -5 34 52 31 71 -1 7 6 14 14 18 9 3 14 10 11 15 -3 5 3
11 14 14 18 5 24 22 23 64 -1 9 8 11 24 7 22 -6 24 -4 18 15 -4 14 -2 21 6 21
7 0 9 3 6 7 -4 3 -2 12 4 20 9 10 8 13 0 13 -7 0 -9 5 -6 10 4 6 10 8 15 5 15
-9 59 25 53 41 -3 8 0 14 6 14 6 0 11 9 11 19 0 27 10 31 42 18 30 -13 108
-83 108 -96 0 -11 29 -23 40 -16 13 8 -1 45 -16 45 -8 0 -14 7 -14 16 0 9 -8
23 -17 30 -16 12 -14 13 12 4 28 -11 28 -10 12 8 -9 10 -17 28 -17 39 0 11 -7
26 -15 33 -8 7 -15 18 -15 24 0 6 -12 22 -25 35 -29 27 -32 46 -9 55 24 9 35
-2 28 -29 -5 -19 -3 -23 13 -19 10 3 28 -4 39 -15 13 -11 30 -18 41 -15 11 3
25 -1 32 -10 7 -8 19 -12 27 -9 8 3 25 -2 39 -11 13 -9 31 -13 40 -10 11 5 14
2 9 -11 -5 -11 -2 -16 7 -15 29 5 54 0 42 -8 -8 -5 -3 -11 13 -19 20 -9 24 -8
24 4 0 12 3 13 14 4 10 -8 16 -9 21 -1 10 17 25 11 19 -7 -5 -17 -5 -17 9 0
17 20 31 23 24 4 -3 -8 1 -14 9 -14 18 0 17 7 -1 31 -22 29 -19 33 28 40 58 9
66 16 69 59 2 20 6 37 9 37 3 0 14 7 25 15 19 14 19 14 -4 30 -12 9 -22 22
-22 28 0 7 4 6 10 -3 6 -9 10 -10 10 -3 0 6 -7 19 -16 27 -17 18 -28 21 -19 7
3 -5 1 -12 -4 -15 -5 -3 -12 1 -15 10 -4 9 -5 18 -4 18 15 8 101 25 108 21 4
-3 10 2 14 10 3 8 11 15 17 15 8 0 8 -4 1 -12 -5 -7 -8 -24 -7 -38 2 -14 4
-28 4 -32 1 -10 41 -11 41 -2 0 4 -7 12 -16 18 -23 18 -8 40 39 57 41 14 44
14 61 -5 9 -12 15 -16 11 -9 -3 6 -1 15 5 18 6 4 8 15 5 26 -8 24 13 25 31 2
8 -11 13 -13 14 -5 0 19 17 14 23 -8 3 -11 -3 -29 -14 -41 -10 -12 -19 -18
-19 -14 0 5 6 16 14 24 13 14 12 16 -10 17 -13 1 -21 -2 -18 -7 7 -13 -15 -49
-30 -49 -8 0 -17 11 -20 25 -4 14 -11 23 -16 20 -6 -4 -8 -11 -4 -16 3 -5 0
-17 -8 -26 -11 -14 -11 -16 4 -10 12 4 15 2 11 -9 -3 -8 -11 -13 -18 -12 -8 2
-14 0 -14 -4 -2 -22 1 -27 19 -33 20 -6 20 -7 -5 -27 -14 -11 -22 -24 -19 -30
4 -6 3 -8 -3 -5 -5 3 -8 20 -5 37 2 18 0 30 -7 30 -6 0 -11 -6 -12 -12 0 -7
-5 -2 -10 11 -20 50 -19 11 1 -60 45 -155 43 -152 68 -127 9 9 12 9 12 1 0 -7
-4 -14 -9 -18 -12 -7 -12 -66 0 -80 4 -6 10 -22 12 -35 2 -14 9 -36 15 -50 10
-23 11 -22 13 20 1 25 3 37 6 28 2 -10 10 -18 16 -19 7 0 22 -2 35 -5 23 -4
31 10 10 20 -10 5 -10 7 0 12 14 6 17 44 3 44 -14 0 -33 -28 -26 -40 3 -5 -1
-10 -9 -10 -9 0 -16 7 -16 16 0 11 -6 14 -20 9 -20 -6 -28 9 -10 20 5 3 6 13
3 21 -5 13 -1 15 15 10 17 -6 23 -2 28 18 6 25 31 42 43 30 3 -4 1 -9 -6 -11
-7 -2 -9 -11 -6 -19 3 -7 9 -11 14 -8 5 3 7 9 4 14 -3 5 -1 11 5 15 5 3 10 11
10 16 0 6 -5 7 -11 3 -8 -4 -9 0 -4 15 4 14 2 23 -8 27 -12 4 -11 11 4 40 15
29 16 41 6 67 -10 29 -12 30 -15 10 -5 -33 -21 -28 -20 6 1 16 10 39 20 52 12
15 18 18 15 7 -4 -12 0 -15 21 -13 34 4 65 -15 51 -31 -6 -7 -11 -28 -12 -48
-2 -19 -6 -38 -10 -42 -11 -12 -8 -26 4 -18 8 5 8 1 0 -14 -8 -15 -8 -22 2
-25 9 -4 8 -8 -3 -16 -13 -9 -13 -12 -1 -20 18 -11 18 -61 0 -72 -10 -6 -11
-9 -1 -9 6 0 12 -7 12 -15 0 -8 8 -15 18 -15 16 -1 16 -1 0 -14 -10 -7 -15
-16 -11 -19 3 -4 0 -13 -7 -22 -10 -12 -10 -15 4 -15 9 0 17 5 17 10 1 6 2 15
3 22 0 6 7 13 14 16 9 3 7 -8 -6 -35 -12 -23 -17 -45 -12 -52 6 -11 9 -11 13
0 4 10 6 9 6 -3 1 -9 -5 -18 -11 -21 -10 -3 -10 -7 -2 -18 7 -8 8 -22 3 -34
-4 -11 -8 -14 -8 -7 -1 7 -6 10 -12 6 -8 -5 -7 -9 1 -14 8 -5 10 -15 6 -26 -4
-9 -2 -21 5 -25 8 -4 5 -13 -9 -27 -12 -12 -24 -17 -27 -13 -2 5 2 11 10 15
19 7 20 26 0 26 -7 0 -18 7 -23 16 -7 12 -14 14 -27 7 -13 -8 -23 -5 -41 12
-13 12 -24 27 -24 34 0 6 -7 11 -15 11 -15 0 -20 -16 -17 -52 1 -10 -3 -18 -8
-18 -6 0 -10 -11 -10 -24 0 -13 -5 -26 -10 -28 -6 -2 -12 -14 -15 -28 -3 -14
-15 -33 -27 -42 -13 -10 -19 -18 -14 -18 5 0 4 -6 -1 -12 -6 -7 -13 -21 -16
-31 -6 -16 6 -17 159 -17 161 0 166 1 161 20 -7 26 10 26 18 0 5 -16 15 -20
50 -20 30 0 45 5 49 16 5 14 8 14 28 0 26 -19 46 -20 85 -5 22 8 24 12 13 19
-21 13 -3 12 22 -1 17 -9 18 -13 7 -20 -10 -6 -4 -8 19 -7 33 2 36 6 26 32 -4
11 -14 14 -33 11 -23 -5 -24 -4 -5 4 30 13 38 29 24 46 -10 12 -10 15 0 15 10
0 10 3 0 15 -6 8 -9 19 -5 24 3 6 0 8 -8 5 -14 -5 -33 24 -22 34 3 3 5 0 5 -6
0 -7 9 -12 20 -12 13 0 20 -7 20 -18 0 -10 5 -23 12 -30 9 -9 9 -12 0 -12 -7
0 -12 -4 -12 -10 0 -5 11 -10 25 -10 18 0 23 4 19 15 -7 17 4 19 25 6 9 -6 10
-11 2 -15 -17 -11 -3 -26 17 -20 14 5 15 4 2 -5 -13 -9 -12 -12 5 -25 11 -9
26 -16 33 -16 7 0 10 -5 7 -10 -4 -6 -10 -8 -15 -5 -5 3 -11 1 -15 -4 -3 -6
84 -10 235 -11 162 0 239 3 235 10 -3 5 -1 10 4 10 6 0 11 -5 11 -10 0 -7 125
-10 364 -9 l364 1 4 30 5 29 -24 -28 -23 -28 6 30 c4 21 3 26 -4 16 -8 -11
-12 -10 -21 7 -7 13 -17 18 -30 15 -10 -3 -22 0 -25 6 -4 6 -15 11 -24 10 -11
0 -12 -3 -4 -6 20 -8 13 -20 -15 -26 -19 -4 -33 0 -45 13 -14 15 -31 18 -91
17 -56 -2 -73 1 -70 11 3 6 -2 12 -10 12 -8 0 -18 -6 -20 -12 -3 -8 -6 -5 -6
5 -1 10 -5 16 -10 12 -6 -3 -14 3 -20 12 -9 16 -10 16 -11 -4 0 -12 5 -25 10
-28 6 -3 10 -10 10 -16 0 -5 -4 -9 -10 -9 -5 0 -10 7 -10 15 0 8 -5 15 -11 15
-5 0 -8 4 -4 9 9 15 -16 24 -28 11 -9 -10 -9 -11 2 -5 9 5 12 4 7 -3 -5 -8
-13 -9 -25 -2 -10 5 -21 7 -24 4 -3 -3 -3 3 0 14 3 14 -1 22 -16 27 -12 3 -21
12 -21 20 0 7 -3 22 -7 32 -3 10 -3 15 2 11 7 -7 55 35 55 49 0 3 -12 3 -26 0
-17 -3 -22 -1 -16 5 6 6 22 11 36 11 30 -1 31 4 11 31 -8 11 -15 25 -15 30 1
16 40 -34 40 -50 0 -15 18 -18 44 -8 23 9 20 22 -6 29 -36 11 -78 56 -78 83 0
20 2 22 15 12 8 -6 19 -9 25 -5 7 4 7 -2 0 -19 -8 -23 -7 -26 11 -26 18 0 19
2 9 15 -9 10 -9 15 -1 15 6 0 11 7 11 15 0 17 -36 39 -50 30 -6 -3 -10 -2 -10
4 0 5 14 9 30 9 17 -1 30 -5 30 -9 0 -5 11 -4 25 1 16 6 25 6 25 0 0 -5 7 -7
15 -4 8 4 15 1 15 -4 0 -18 -19 -23 -40 -12 -21 11 -27 1 -9 -17 11 -11 59 -5
59 8 0 5 7 6 15 3 8 -4 15 -1 15 5 0 6 -6 11 -14 11 -13 0 -31 27 -28 41 1 4
-8 5 -18 2 -21 -5 -25 4 -14 31 6 16 13 10 62 -53 17 -22 19 -23 36 -6 26 27
28 13 2 -18 -13 -15 -31 -27 -40 -27 -13 0 -16 -6 -11 -22 5 -18 4 -19 -4 -8
-5 8 -13 11 -17 7 -4 -4 -3 -12 3 -18 16 -16 44 -3 37 16 -6 15 7 21 20 8 4
-4 23 -8 42 -9 30 -1 34 2 28 20 -9 30 -14 33 -24 16 -8 -13 -10 -13 -10 1 0
8 7 24 15 35 12 16 14 16 15 3 0 -13 9 -16 40 -14 42 2 54 -9 21 -20 -11 -3
-25 -13 -32 -21 -10 -13 -10 -17 2 -25 21 -13 29 -11 23 5 -3 8 3 19 15 25 26
14 31 14 31 -4 0 -9 -6 -12 -15 -9 -20 8 -19 -5 2 -28 9 -11 11 -18 5 -18 -7
0 -12 -7 -12 -15 0 -9 6 -12 15 -9 9 4 15 0 16 -7 0 -16 17 19 18 39 1 6 -9
12 -21 12 -21 0 -21 1 -5 17 16 16 18 16 33 -5 8 -12 24 -22 35 -22 11 0 17
-5 14 -10 -4 -6 -10 -8 -15 -5 -4 3 -10 -5 -14 -18 -9 -35 -7 -42 8 -22 11 16
17 17 29 7 13 -11 18 -9 30 8 12 17 16 18 20 6 3 -8 -1 -20 -8 -26 -8 -7 -13
-16 -10 -20 3 -4 -5 -20 -17 -35 l-21 -27 23 13 c18 11 24 11 27 1 3 -6 9 -10
14 -6 5 3 9 0 9 -6 0 -7 -8 -9 -20 -5 -25 8 -26 -3 -2 -21 14 -10 15 -15 5
-25 -18 -18 -16 -27 5 -33 11 -3 8 -5 -8 -4 -49 1 -52 -1 -38 -16 10 -10 16
-11 26 -3 11 9 13 7 10 -9 -2 -15 2 -18 21 -16 21 3 23 1 19 -28 -4 -23 0 -34
15 -41 10 -6 21 -8 25 -5 3 3 1 6 -5 6 -6 0 -13 9 -16 20 -3 13 0 20 9 20 8 0
17 7 20 15 4 8 10 15 14 15 5 0 3 -12 -5 -26 -26 -52 -18 -53 326 -53 279 -1
312 1 295 14 -11 8 -23 15 -27 15 -12 0 -641 342 -975 530 -621 350 -854 519
-1022 744 -171 226 -239 380 -292 656 -58 297 -24 595 94 846 133 280 335 515
836 974 190 174 371 359 461 470 90 112 199 262 199 276 0 4 6 15 14 23 28 31
124 238 154 331 63 194 75 269 73 470 -2 203 -23 296 -99 444 -42 81 -142 220
-184 254 l-27 23 -35 -32 c-20 -17 -33 -36 -30 -40 3 -5 0 -9 -7 -9 -8 0 -6
-6 4 -18 10 -10 14 -22 10 -26 -4 -4 -15 3 -25 16 -15 20 -19 21 -28 8 -7 -11
-10 -11 -10 -2 0 12 -61 -24 -68 -41 -2 -4 -10 -3 -18 4 -10 8 -14 8 -14 0 0
-12 -71 -51 -92 -51 -8 0 -24 -10 -37 -22 -19 -18 -33 -22 -68 -19 -36 2 -42
6 -32 17 12 14 -1 19 -43 16 -10 -1 -18 3 -18 8 0 6 7 10 15 10 8 0 15 7 15
16 0 13 -7 15 -35 11 -19 -3 -35 -2 -35 4 0 5 4 9 9 9 5 0 11 6 14 13 3 8 -6
12 -27 11 -39 0 -56 5 -56 18 0 6 6 6 14 -1 9 -8 16 -8 20 -2 4 6 -2 15 -13
21 -12 6 -18 16 -15 25 5 11 -1 15 -24 15 -17 0 -34 5 -38 11 -5 8 -8 8 -13 0
-5 -7 -19 -3 -41 14 -19 14 -35 25 -37 25 -11 0 8 -18 95 -88 289 -235 485
-519 532 -776 17 -93 8 -251 -20 -341 -20 -66 -93 -214 -124 -252 -107 -133
-178 -212 -255 -282 -111 -101 -286 -243 -410 -331 -236 -167 -534 -395 -609
-465 -137 -128 -309 -350 -380 -490 -116 -231 -158 -516 -113 -771 11 -67 37
-169 56 -225 43 -125 151 -349 194 -403 17 -22 41 -55 53 -75 78 -128 240
-319 428 -504 82 -82 150 -153 150 -158 0 -20 -45 4 -95 50 -73 68 -240 242
-336 352 -196 224 -365 508 -442 744 -60 181 -95 403 -83 529 34 368 192 675
506 986 127 125 231 210 565 460 377 281 503 397 647 590 144 194 195 392 149
585 -74 310 -352 618 -806 895 -66 40 -157 97 -202 126 -46 30 -86 54 -90 54
-15 0 -339 220 -463 315 -58 45 -186 174 -234 238 -16 21 -31 35 -34 33 -3 -3
0 -11 6 -19 6 -7 15 -25 21 -39 8 -22 8 -26 -4 -21 -8 3 -15 0 -15 -6 0 -6 6
-12 13 -12 6 -1 19 -2 27 -3 8 0 19 -11 25 -23 5 -13 13 -23 17 -23 4 0 5 -6
2 -13 -3 -8 2 -20 11 -27 8 -7 15 -9 15 -6 0 4 9 2 20 -4 11 -6 18 -15 15 -21
-4 -5 2 -9 11 -9 10 0 38 -17 63 -38 25 -21 54 -41 64 -45 9 -3 17 -13 17 -22
0 -8 6 -15 14 -15 8 0 13 -8 12 -17 -1 -14 7 -18 29 -18 23 -1 31 -6 33 -21 4
-26 -2 -30 -123 -94 -55 -29 -107 -59 -116 -66 -8 -8 -23 -14 -31 -14 -9 0
-20 -6 -26 -13 -6 -7 -27 -19 -47 -27 -33 -13 -36 -17 -31 -42 3 -15 1 -28 -4
-28 -6 0 -10 5 -10 10 0 6 -11 8 -25 4 -19 -5 -25 -2 -25 10 0 9 -6 16 -14 16
-23 0 -45 93 -25 105 11 7 2 25 -13 25 -5 0 -8 -7 -4 -15 6 -17 -29 -22 -39
-5 -4 6 -11 8 -16 5 -5 -4 -9 1 -9 10 0 8 -8 18 -17 22 -23 8 -83 70 -76 77 4
3 1 6 -6 6 -19 0 -63 49 -55 62 4 6 3 8 -3 5 -15 -9 -24 34 -11 50 6 7 15 13
20 13 5 0 24 11 41 24 18 14 64 41 102 62 90 48 145 91 145 113 0 23 -31 51
-56 51 -16 1 -15 4 9 25 25 22 26 27 14 40 -8 8 -17 11 -21 8 -3 -4 -6 1 -6
10 0 10 -6 17 -12 17 -7 0 -4 6 7 12 11 6 21 12 22 13 2 1 -21 49 -50 106 -66
132 -93 199 -123 302 l-24 82 6 -65 c3 -36 7 -83 8 -105 0 -24 6 -39 13 -38 6
1 14 -15 18 -37 4 -22 11 -40 16 -40 5 0 4 -11 -1 -25 -9 -24 1 -42 18 -32 4
3 7 -6 7 -19 0 -23 -2 -25 -40 -18 -22 3 -49 11 -60 18 -11 7 -47 18 -80 26
-33 8 -75 20 -92 27 -46 18 -45 55 3 108 20 22 59 70 86 107 27 37 61 77 75
88 l27 21 -13 77 c-37 231 -2 676 83 1033 26 111 108 369 152 479 40 99 40 99
85 200 70 158 78 180 74 180 -3 0 -12 -15 -21 -32z m-578 -233 c-5 -15 24 -45
43 -45 7 0 10 -4 6 -9 -3 -5 -1 -12 5 -16 17 -11 11 -24 -20 -40 -22 -11 -30
-23 -31 -43 0 -26 -1 -26 -9 -4 -5 12 -16 22 -24 22 -10 0 -13 6 -10 15 5 12
9 13 20 4 8 -7 17 -9 20 -6 3 3 -3 12 -15 19 -23 14 -28 43 -8 51 9 4 9 8 -2
15 -9 6 -10 15 -5 23 5 8 9 17 10 22 1 4 2 10 3 13 0 3 6 2 12 -1 6 -4 8 -13
5 -20z m59 -135 c3 -5 -1 -10 -9 -10 -9 0 -16 5 -16 10 0 6 4 10 9 10 6 0 13
-4 16 -10z m-85 -30 c0 -5 -5 -10 -11 -10 -5 0 -7 5 -4 10 3 6 8 10 11 10 2 0
4 -4 4 -10z m60 -35 c0 -8 -4 -15 -10 -15 -5 0 -10 7 -10 15 0 8 5 15 10 15 6
0 10 -7 10 -15z m-73 -31 c-9 -9 -28 6 -21 18 4 6 10 6 17 -1 6 -6 8 -13 4
-17z m-1857 -6 c0 -16 -3 -19 -11 -11 -6 6 -8 16 -5 22 11 17 16 13 16 -11z
m1808 4 c2 -7 -3 -12 -12 -12 -9 0 -16 7 -16 16 0 17 22 14 28 -4z m-2396 -37
c3 0 9 -3 13 -7 4 -3 -1 -5 -12 -3 -10 2 -21 4 -25 4 -5 1 -8 6 -8 12 0 6 5 7
13 2 6 -4 15 -8 19 -8z m618 11 c0 -3 -4 -8 -10 -11 -5 -3 -10 -1 -10 4 0 6 5
11 10 11 6 0 10 -2 10 -4z m627 -12 c4 -12 -93 -41 -103 -32 -2 3 -2 13 2 22
5 12 14 16 30 12 12 -3 26 -1 29 5 8 13 37 8 42 -7z m1195 -4 c0 -11 1 -25 2
-32 1 -6 -5 -13 -12 -16 -8 -2 -11 7 -10 32 3 38 17 50 20 16z m-1801 -12 c0
-10 2 -10 6 0 5 13 23 7 23 -9 0 -14 -26 -11 -40 6 -9 10 -9 15 -1 15 6 0 11
-6 12 -12z m489 7 c0 -3 -9 -15 -20 -27 -21 -23 -28 -7 -7 17 12 14 27 20 27
10z m1365 -45 c3 -5 1 -10 -4 -10 -6 0 -11 5 -11 10 0 6 2 10 4 10 3 0 8 -4
11 -10z m-78 -52 c-3 -8 -6 -5 -6 6 -1 11 2 17 5 13 3 -3 4 -12 1 -19z m55 0
c-9 -9 -15 -9 -24 0 -9 9 -7 12 12 12 19 0 21 -3 12 -12z m-37 -44 c14 -6 14
-8 -1 -25 -25 -28 -54 -25 -54 6 0 26 19 32 55 19z m-585 -8 c0 -3 -4 -8 -10
-11 -5 -3 -10 -1 -10 4 0 6 5 11 10 11 6 0 10 -2 10 -4z m736 -163 c-10 -10
-19 5 -10 18 6 11 8 11 12 0 2 -7 1 -15 -2 -18z m107 7 c3 -11 1 -23 -5 -26
-6 -4 -6 -10 1 -17 20 -20 11 -30 -10 -11 -17 16 -22 16 -29 4 -5 -8 -7 -23
-4 -32 3 -10 1 -18 -5 -18 -6 0 -11 3 -12 8 -10 71 -8 83 12 77 15 -5 22 -2
26 14 7 27 19 27 26 1z m-3 -90 c0 -5 -4 -10 -10 -10 -5 0 -10 5 -10 10 0 6 5
10 10 10 6 0 10 -4 10 -10z m-2700 -150 c0 -5 -4 -10 -10 -10 -5 0 -10 5 -10
10 0 6 5 10 10 10 6 0 10 -4 10 -10z m487 -417 c-10 -10 13 -32 27 -27 8 3 16
-6 20 -23 3 -15 10 -46 15 -68 9 -37 8 -38 -5 -20 -8 11 -22 29 -32 41 -45 55
-59 104 -30 104 6 0 8 -3 5 -7z m63 -212 c0 -5 -7 -12 -16 -15 -24 -9 -28 -7
-14 9 14 17 30 20 30 6z m2060 -36 c0 -8 5 -15 10 -15 6 0 10 -5 10 -11 0 -5
-4 -7 -10 -4 -5 3 -10 1 -10 -4 0 -6 -4 -11 -9 -11 -12 0 -24 37 -16 50 9 15
25 12 25 -5z m-133 -37 c-3 -7 -5 -2 -5 12 0 14 2 19 5 13 2 -7 2 -19 0 -25z
m-1943 -74 c3 -8 2 -12 -4 -9 -6 3 -10 10 -10 16 0 14 7 11 14 -7z m1946 -78
c-12 -34 -26 -28 -24 11 2 75 5 80 18 43 7 -19 10 -44 6 -54z m-1950 24 c0
-16 -3 -30 -7 -30 -5 0 -21 -23 -38 -50 -29 -49 -44 -62 -46 -37 0 8 -2 8 -5
1 -3 -7 -14 -10 -25 -7 -10 3 -26 0 -34 -7 -12 -10 -15 -10 -15 3 0 9 9 19 20
22 11 3 20 10 20 15 0 5 -6 7 -14 4 -7 -3 -16 2 -20 12 -4 11 -2 15 8 11 11
-4 13 -1 9 11 -6 15 -5 15 11 2 16 -12 19 -12 27 3 6 9 18 17 29 17 10 0 28
14 40 30 12 17 26 30 31 30 5 0 9 -13 9 -30z m163 5 c-7 -21 -13 -19 -13 6 0
11 4 18 10 14 5 -3 7 -12 3 -20z m77 -37 c0 -6 -7 -5 -15 2 -8 7 -15 17 -15
22 0 6 7 5 15 -2 8 -7 15 -17 15 -22z m-100 -28 c0 -5 -7 -10 -15 -10 -8 0
-15 5 -15 10 0 6 7 10 15 10 8 0 15 -4 15 -10z m68 -39 c-4 -22 -25 -24 -32
-4 -3 10 -9 23 -12 30 -4 9 1 9 21 0 14 -7 24 -18 23 -26z m38 -2 c3 -6 0 -15
-7 -20 -8 -5 -10 -9 -5 -9 5 0 18 8 29 18 19 16 20 16 15 -9 -3 -18 0 -25 11
-25 9 1 18 -3 21 -9 2 -5 17 -21 32 -33 15 -13 28 -27 28 -32 0 -13 -50 2 -63
19 -15 19 -42 38 -79 52 -32 13 -32 13 -16 39 14 23 24 25 34 9z m-342 -53
c-3 -9 -10 -13 -16 -10 -5 3 -4 12 3 20 15 18 22 13 13 -10z m-42 -68 c-7 -26
-89 -111 -96 -99 -3 5 1 14 9 21 17 14 21 35 5 25 -5 -3 -10 -1 -10 5 0 7 7
10 15 7 30 -12 24 13 -7 28 -18 8 -25 13 -15 10 20 -5 22 6 5 23 -13 13 5 42
26 42 6 0 3 -5 -6 -11 -25 -14 -22 -26 5 -24 15 1 23 9 26 26 l3 24 23 -29
c14 -17 20 -36 17 -48z m-142 -12 c0 -11 -19 -15 -25 -6 -3 5 1 10 9 10 9 0
16 -2 16 -4z m31 -69 c-5 -7 -8 -25 -7 -40 4 -33 -30 -59 -45 -36 -12 20 -11
31 2 23 6 -3 15 0 20 7 13 21 11 29 -8 30 -17 1 -17 2 0 6 9 2 15 9 11 14 -3
6 0 17 7 25 11 14 13 14 22 -1 5 -10 5 -21 -2 -28z m545 -174 c-9 -15 -21 -35
-26 -43 -6 -8 -22 -42 -37 -75 -24 -53 -28 -57 -31 -33 -2 18 4 35 17 50 12
12 21 25 21 30 0 13 62 109 67 104 2 -2 -3 -17 -11 -33z m1046 -45 c-8 -8 -9
-4 -5 13 4 13 8 18 11 10 2 -7 -1 -18 -6 -23z m1003 11 c4 -6 -1 -16 -11 -23
-17 -13 -30 -51 -13 -41 4 3 11 -5 15 -19 4 -19 -1 -31 -26 -54 -27 -26 -29
-31 -13 -34 10 -3 -46 -4 -124 -4 -184 1 -186 9 -24 101 141 80 183 96 196 74z
m-1050 -85 c0 -10 -7 -20 -16 -22 -13 -2 -15 3 -11 23 5 29 27 29 27 -1z
m-1347 -142 c6 6 14 9 18 6 5 -6 -26 -59 -61 -102 -25 -32 -29 -10 -4 24 18
24 21 35 13 48 -6 9 -9 23 -6 31 4 12 7 12 17 -2 9 -12 15 -13 23 -5z m-58
-67 c-14 -17 -30 -20 -30 -5 0 6 7 10 15 10 8 0 15 5 15 12 0 6 3 8 6 5 4 -4
1 -13 -6 -22z m-27 -75 c-3 -11 -13 -26 -22 -33 -9 -7 -48 -55 -88 -108 -87
-116 -96 -124 -113 -104 -10 12 -10 15 4 15 10 0 16 9 16 25 0 15 7 28 17 32
33 13 96 81 87 94 -5 9 -2 11 9 6 10 -4 18 1 22 13 7 21 55 80 66 80 4 0 5 -9
2 -20z m-63 -10 c0 -5 -4 -10 -9 -10 -6 0 -13 5 -16 10 -3 6 1 10 9 10 9 0 16
-4 16 -10z m-30 -14 c0 -3 -4 -8 -10 -11 -5 -3 -10 -1 -10 4 0 6 5 11 10 11 6
0 10 -2 10 -4z m588 -83 l-4 -28 -8 28 c-5 15 -5 39 0 55 l8 27 4 -27 c2 -16
2 -40 0 -55z m-25 -28 c-3 -9 -8 -14 -10 -11 -3 3 -2 9 2 15 9 16 15 13 8 -4z
m8 -32 c-12 -20 -14 -14 -5 12 4 9 9 14 11 11 3 -2 0 -13 -6 -23z m-597 -239
c43 -58 82 -116 88 -129 12 -26 5 -55 -13 -55 -8 0 -8 4 1 14 9 12 8 15 -7 15
-34 -1 -55 7 -65 24 -6 11 -5 17 1 17 5 0 12 -8 14 -17 3 -13 5 -11 6 6 1 19
-3 22 -20 18 -11 -3 -28 -3 -37 1 -14 5 -12 7 7 12 14 3 27 12 29 19 3 8 0 11
-7 7 -6 -4 -18 0 -27 8 -8 9 -11 16 -5 16 15 0 13 11 -4 34 -8 11 -18 16 -22
12 -4 -4 -1 -11 7 -17 12 -7 12 -11 2 -17 -10 -7 -10 -19 -2 -58 10 -45 10
-50 -9 -63 -23 -15 -27 -37 -8 -44 7 -3 5 -6 -5 -6 -15 -1 -16 9 -12 82 6 103
6 90 2 169 -2 36 0 64 3 62 4 -2 41 -51 83 -110z m3252 61 c-7 -19 1 -19 21 0
16 17 33 11 33 -11 0 -8 4 -13 9 -10 15 10 39 -4 44 -25 4 -15 -1 -23 -19 -30
-36 -13 -45 -11 -42 7 2 10 -3 19 -9 21 -8 3 -13 -4 -13 -16 0 -11 -4 -23 -10
-26 -5 -3 -10 -1 -10 4 0 6 -4 11 -10 11 -5 0 -10 -6 -10 -14 0 -15 -84 -51
-99 -42 -5 4 -13 1 -16 -5 -4 -5 -14 -8 -22 -5 -22 9 -63 -22 -55 -42 5 -16 5
-16 -11 0 -9 9 -17 20 -17 25 0 12 71 49 87 45 7 -2 13 2 13 9 0 6 8 9 20 6
11 -3 20 -1 20 3 0 4 9 6 19 3 21 -5 61 12 61 27 0 6 -7 10 -16 10 -17 0 -11
32 10 56 15 18 29 17 22 -1z m147 -9 c9 -7 17 -17 17 -22 0 -4 -5 -3 -12 4 -7
7 -20 12 -31 12 -10 0 -15 5 -12 10 8 13 16 12 38 -4z m-2761 -62 c21 -16 24
-24 16 -44 l-9 -25 -13 23 c-11 21 -13 21 -29 5 -11 -11 -17 -13 -17 -5 0 7 5
12 11 12 5 0 7 5 4 10 -3 6 -15 10 -27 10 -16 0 -18 -3 -9 -13 8 -10 7 -19 -5
-33 -15 -18 -15 -18 -9 3 5 19 3 22 -12 16 -15 -5 -16 -3 -5 8 23 25 12 28
-13 3 -13 -13 -22 -30 -19 -38 3 -8 0 -17 -6 -21 -13 -8 5 -20 78 -54 23 -11
42 -27 42 -36 0 -8 4 -15 10 -15 12 0 9 22 -5 32 -6 5 -3 14 9 25 13 13 20 15
23 6 3 -7 13 -13 23 -13 24 0 70 -21 70 -31 0 -4 -4 -11 -10 -14 -5 -3 -10 -1
-10 4 0 6 -8 11 -17 11 -15 0 -15 -2 -3 -14 23 -22 55 -24 55 -3 0 10 6 22 14
26 9 6 10 11 2 15 -6 4 -11 3 -11 -3 0 -6 -6 -8 -14 -5 -8 3 -13 11 -10 18 3
7 -2 19 -11 26 -16 14 -21 50 -6 50 6 0 16 -8 23 -18 8 -12 26 -18 48 -19 54
0 160 -34 160 -51 0 -7 -9 -25 -20 -39 -12 -16 -20 -41 -20 -64 0 -24 -5 -39
-12 -40 -10 0 -10 -2 0 -6 6 -2 12 -9 12 -14 0 -4 -7 -6 -15 -3 -18 7 -20 -12
-2 -20 6 -3 3 -4 -8 -3 -12 2 -19 10 -19 20 1 9 -2 14 -7 11 -13 -8 -11 -21 7
-38 18 -18 10 -38 -13 -34 -9 2 -18 -2 -20 -9 -3 -7 3 -9 17 -6 31 8 38 -10
29 -70 -4 -29 -10 -73 -14 -99 -3 -27 -10 -48 -15 -48 -4 0 -19 29 -31 64 -13
36 -27 62 -31 60 -14 -9 -29 35 -18 55 8 16 6 23 -12 35 -18 13 -19 16 -5 16
9 0 17 7 17 15 0 8 3 15 8 15 4 0 13 4 21 9 12 8 12 12 -2 25 -22 22 -40 20
-34 -3 4 -17 0 -19 -31 -16 -54 4 -155 -21 -201 -49 -22 -14 -43 -26 -47 -26
-7 0 -68 -26 -104 -45 -50 -25 -100 -37 -113 -26 -7 5 -18 6 -25 2 -16 -9
-114 8 -123 22 -4 5 -12 6 -18 3 -6 -4 -17 -4 -23 1 -7 4 -30 8 -50 8 -21 0
-38 3 -38 8 0 4 0 19 0 33 0 23 3 25 31 19 19 -4 29 -3 26 2 -3 5 8 10 26 11
79 4 101 8 105 21 2 7 -1 17 -8 21 -9 5 -9 9 -1 14 6 4 14 0 17 -8 3 -9 14
-16 23 -16 9 0 22 -5 29 -12 8 -8 15 -8 26 1 8 7 24 10 35 6 14 -4 23 0 30 14
6 11 20 23 31 26 11 3 20 13 20 21 0 11 -6 13 -20 9 -18 -6 -18 -4 -9 24 12
33 29 42 29 14 0 -13 3 -14 12 -5 8 8 15 8 24 1 10 -8 18 -6 31 6 16 17 16 17
-5 11 -24 -8 -31 8 -7 18 22 8 18 28 -5 24 -10 -2 -19 0 -20 5 0 4 3 7 7 6 16
-1 19 37 4 48 -21 16 -6 17 19 1 24 -15 34 -6 25 21 -3 12 -15 21 -26 21 -23
0 -24 9 -1 36 17 22 81 48 117 49 11 0 19 5 18 11 -3 17 31 10 59 -12z m-22
-86 c0 -13 -23 -5 -28 10 -2 7 2 10 12 6 9 -3 16 -11 16 -16z m-66 -13 c3 -8
10 -15 16 -15 6 0 8 5 5 10 -3 6 -2 10 3 10 14 0 23 -28 12 -35 -10 -6 -59 25
-60 38 0 13 18 7 24 -8z m151 5 c3 -5 -1 -10 -10 -10 -9 0 -13 5 -10 10 3 6 8
10 10 10 2 0 7 -4 10 -10z m1442 -67 c-9 -9 -20 -13 -24 -9 -4 4 1 14 11 22
25 18 35 8 13 -13z m-2182 -12 c3 -5 1 -12 -5 -16 -5 -3 -10 1 -10 9 0 18 6
21 15 7z m30 -21 c3 -5 1 -10 -4 -10 -6 0 -11 5 -11 10 0 6 2 10 4 10 3 0 8
-4 11 -10z m115 -5 c0 -8 -4 -15 -9 -15 -13 0 -22 16 -14 24 11 11 23 6 23 -9z
m1845 -4 c-3 -6 -11 -11 -17 -11 -6 0 -6 6 2 15 14 17 26 13 15 -4z m35 1 c0
-5 -7 -17 -15 -28 -14 -19 -14 -19 -15 2 0 11 3 24 7 27 9 10 23 9 23 -1z
m-2036 -28 c5 -13 3 -14 -6 -7 -7 6 -20 13 -28 16 -10 4 -8 6 6 6 12 1 25 -6
28 -15z m4891 -54 c-4 -7 2 -18 13 -26 23 -16 74 -82 54 -70 -21 13 -13 -10
13 -38 14 -15 22 -32 19 -38 -4 -7 -2 -8 4 -4 8 5 12 -3 12 -23 0 -16 6 -32
13 -34 9 -4 9 -8 -2 -15 -11 -8 -10 -11 5 -20 11 -6 18 -22 18 -46 1 -39 12
-46 32 -18 14 18 13 21 19 -60 0 -9 4 -20 8 -24 10 -10 9 -84 -1 -84 -10 0 -9
-30 2 -48 4 -6 5 -16 2 -20 -2 -4 -1 -14 4 -22 5 -8 3 -25 -7 -43 -8 -16 -11
-32 -6 -36 8 -6 8 -16 5 -123 -2 -54 -4 -58 -29 -64 -16 -4 -32 -9 -37 -12 -5
-2 -72 -4 -150 -4 l-141 1 -1 108 c-1 84 3 112 15 126 8 10 10 17 4 15 -6 -2
-12 2 -13 7 0 6 -10 13 -22 18 -29 10 -22 80 26 275 66 263 76 304 76 319 0 9
7 24 16 34 15 17 17 17 36 -1 11 -10 17 -24 13 -30z m-2860 10 c3 -5 1 -10 -4
-10 -6 0 -11 5 -11 10 0 6 2 10 4 10 3 0 8 -4 11 -10z m1856 -13 c-10 -9 -11
-8 -5 6 3 10 9 15 12 12 3 -3 0 -11 -7 -18z m-2031 -17 c0 -5 -4 -10 -10 -10
-5 0 -10 5 -10 10 0 6 5 10 10 10 6 0 10 -4 10 -10z m2856 -7 c10 -13 13 -14
9 -3 -4 11 1 16 15 16 25 0 25 -11 0 -43 -18 -23 -25 -23 -21 0 1 9 -3 9 -23
1 -14 -5 -14 -8 -1 -21 17 -16 20 -43 6 -43 -21 0 -37 55 -19 66 4 3 8 14 8
25 0 24 9 24 26 2z m-838 -12 c-2 -8 -9 -16 -17 -19 -10 -3 -12 0 -8 11 3 9 1
18 -6 20 -7 3 -2 4 11 4 14 -1 22 -7 20 -16z m-3823 -1 c-3 -5 -16 -10 -28
-10 -18 0 -19 2 -7 10 20 13 43 13 35 0z m4505 -40 c0 -5 -5 -10 -11 -10 -5 0
-7 5 -4 10 3 6 8 10 11 10 2 0 4 -4 4 -10z m-410 -45 c6 -8 8 -20 4 -26 -5 -9
-2 -10 9 -6 10 3 17 3 17 -1 0 -4 3 -17 6 -29 5 -17 -1 -25 -26 -38 -39 -20
-49 -10 -43 42 3 29 1 34 -12 29 -16 -6 -13 5 10 31 13 16 20 16 35 -2z m350
5 c0 -5 -8 -10 -17 -10 -15 0 -16 2 -3 10 19 12 20 12 20 0z m184 -6 c7 -18
-15 -64 -40 -85 -15 -12 -16 -12 -9 0 6 10 4 12 -4 6 -9 -5 -10 -10 -2 -18 20
-20 11 -30 -9 -12 -14 13 -17 22 -10 29 5 5 10 18 10 28 0 10 5 18 10 18 6 0
10 6 10 13 0 14 19 37 31 37 4 0 10 -7 13 -16z m-2569 -125 c10 -14 1 -21 -19
-13 -9 3 -13 10 -10 15 7 12 21 11 29 -2z m-45 -36 c0 -8 5 -11 10 -8 6 4 10
3 9 -2 -1 -4 -1 -10 1 -13 8 -22 8 -50 0 -50 -6 0 -10 5 -10 11 0 7 -8 17 -17
24 -20 15 -25 65 -6 58 7 -3 13 -12 13 -20z m2160 11 c0 -8 -4 -12 -10 -9 -5
3 -10 10 -10 16 0 5 5 9 10 9 6 0 10 -7 10 -16z m-2105 -44 c3 -5 1 -10 -4
-10 -6 0 -11 5 -11 10 0 6 2 10 4 10 3 0 8 -4 11 -10z m86 -81 c11 -29 23 -55
28 -59 6 -3 7 -11 2 -18 -10 -17 -52 32 -45 53 4 9 -1 17 -10 21 -11 4 -14 13
-11 24 3 10 1 21 -5 25 -6 3 -7 11 -4 17 10 16 25 -5 45 -63z m-51 37 c0 -3
-4 -8 -10 -11 -5 -3 -10 -1 -10 4 0 6 5 11 10 11 6 0 10 -2 10 -4z m2155 -6
c3 -5 1 -10 -4 -10 -6 0 -11 5 -11 10 0 6 2 10 4 10 3 0 8 -4 11 -10z m-3110
-12 c-2 -7 -10 -26 -16 -43 -12 -29 -15 -39 -18 -51 0 -4 -8 -1 -16 6 -8 7
-22 10 -30 6 -17 -6 -19 2 -7 22 5 7 16 10 28 6 19 -7 19 -6 0 8 -10 8 -16 20
-12 26 4 7 2 12 -5 12 -7 0 -10 3 -7 6 4 3 15 1 26 -5 14 -8 24 -7 38 4 24 18
24 18 19 3z m3056 -19 c20 -10 20 -11 2 -24 -21 -16 -33 -11 -33 16 0 22 4 23
31 8z m89 1 c0 -5 -2 -10 -4 -10 -3 0 -8 5 -11 10 -3 6 -1 10 4 10 6 0 11 -4
11 -10z m-3386 -54 c-3 -8 -1 -17 5 -21 6 -3 11 -12 11 -18 -1 -16 -30 23 -30
40 0 7 4 13 10 13 5 0 7 -6 4 -14z m3320 6 c3 -5 -1 -9 -9 -9 -8 0 -12 4 -9 9
3 4 7 8 9 8 2 0 6 -4 9 -8z m-3284 -30 c0 -15 -2 -15 -10 -2 -13 20 -13 33 0
25 6 -3 10 -14 10 -23z m66 13 c9 -8 13 -18 10 -23 -2 -4 -1 -14 3 -21 7 -11
13 -9 30 8 24 24 37 26 47 9 5 -7 2 -9 -8 -5 -10 3 -24 -4 -37 -19 -21 -24
-15 -34 7 -12 6 6 14 10 16 7 4 -4 -24 -68 -51 -114 -7 -11 -14 -32 -18 -47
-6 -31 -33 -38 -41 -10 -3 9 -9 24 -14 33 -5 9 -14 36 -20 60 -6 24 -13 52
-16 61 -6 19 52 62 69 51 5 -3 6 4 2 16 -8 25 0 27 21 6z m-486 -37 c0 -7 12
-24 27 -40 14 -15 24 -30 21 -33 -11 -12 -34 7 -55 45 -16 31 -18 40 -7 40 8
0 14 -5 14 -12z m3860 -69 c0 -5 -7 -9 -15 -9 -9 0 -12 6 -9 15 6 15 24 11 24
-6z m-4392 -16 c2 -14 -4 -23 -18 -28 -14 -5 -20 -14 -18 -28 2 -12 -2 -21 -8
-20 -6 1 -10 -8 -9 -21 3 -21 -1 -23 -29 -22 -42 2 -40 18 14 87 46 60 63 68
68 32z m-107 -163 c-9 -5 -15 -24 -15 -44 0 -19 -3 -33 -7 -30 -4 2 -10 -7
-13 -20 -5 -20 -14 -24 -63 -30 -31 -4 -61 -2 -66 3 -11 11 89 111 111 111 7
0 20 7 28 15 14 14 11 19 -8 16 -4 0 -5 6 -1 15 5 13 9 13 27 -5 18 -18 19
-23 7 -31z m14 -80 c-4 -6 -2 -17 4 -24 8 -10 4 -11 -21 -8 l-32 5 23 18 c26
21 35 24 26 9z m3961 -45 c11 -27 -2 -37 -14 -11 -7 16 -8 26 -1 26 5 0 12 -7
15 -15z m-3626 -30 c0 -8 -9 -15 -20 -15 -25 0 -26 17 -2 23 9 3 18 5 20 6 1
0 2 -6 2 -14z m84 -1 c22 -21 20 -35 -5 -41 -11 -3 -18 -11 -15 -18 2 -7 -6
-28 -19 -45 -14 -18 -21 -38 -18 -44 4 -6 6 -22 5 -36 -2 -15 7 -37 23 -54 23
-27 33 -56 19 -56 -3 0 -23 15 -46 33 -39 31 -71 86 -98 170 -6 20 -16 37 -21
37 -5 0 -9 9 -9 20 0 13 7 20 19 20 15 0 18 -5 14 -22 -3 -17 -2 -19 5 -9 7 9
11 10 17 2 5 -9 10 -9 21 0 11 9 14 8 15 -7 0 -14 2 -15 6 -4 3 8 12 23 21 33
8 9 12 17 8 17 -4 0 -4 5 -1 10 9 15 42 12 59 -6z m4379 -38 c3 -30 1 -43 -4
-35 -8 13 -13 97 -5 88 2 -2 6 -26 9 -53z m-3733 -20 c0 -11 -19 -15 -25 -6
-3 5 1 10 9 10 9 0 16 -2 16 -4z m2118 -84 c2 -18 -1 -32 -6 -32 -12 0 -33 56
-24 64 13 13 27 -2 30 -32z m-2711 -4 c-3 -8 -6 -5 -6 6 -1 11 2 17 5 13 3 -3
4 -12 1 -19z m3426 -48 c41 4 47 0 47 -28 0 -20 -26 -61 -95 -147 -74 -93
-110 -150 -160 -253 -84 -173 -132 -244 -261 -377 -58 -60 -122 -137 -141
-170 -19 -33 -36 -61 -38 -63 -5 -6 -125 -31 -249 -54 -71 -12 -134 -27 -140
-33 -21 -20 -121 -82 -144 -89 -12 -4 -68 -29 -125 -55 -77 -36 -127 -52 -207
-65 -58 -10 -109 -21 -115 -25 -13 -9 -145 -35 -150 -29 -3 2 -7 38 -11 79 -3
41 -15 111 -26 157 -11 46 -17 89 -15 96 6 14 252 106 284 106 10 0 61 -40
112 -90 52 -49 100 -90 107 -90 18 0 44 52 44 89 0 17 9 59 20 93 11 35 24 82
30 104 5 23 17 47 25 54 8 7 15 24 15 39 l1 26 18 -22 c11 -13 27 -23 37 -23
16 0 16 1 -2 15 -16 12 -17 14 -2 15 14 0 15 4 5 30 -6 17 -14 30 -18 30 -12
0 -2 124 10 128 7 2 9 -3 5 -13 -9 -22 22 -90 64 -142 55 -68 62 -60 62 66 0
120 1 123 67 140 23 6 54 18 70 26 44 23 53 19 53 -22 0 -29 -3 -34 -12 -25
-16 16 -48 15 -48 -2 0 -13 -27 -31 -42 -28 -5 1 -8 -3 -8 -8 0 -6 -7 -10 -15
-10 -11 0 -15 -8 -12 -27 3 -16 10 -27 16 -26 14 4 14 -10 0 -24 -7 -7 -8 -20
-3 -34 8 -24 8 -38 -2 -96 -3 -21 -1 -33 7 -33 6 0 26 -7 45 -16 19 -9 36 -15
38 -13 1 2 31 58 66 124 35 66 87 162 117 213 29 51 53 99 53 106 0 16 65 61
202 140 53 30 105 67 117 82 11 14 34 62 51 107 18 45 38 92 46 104 l14 22 85
-30 c47 -17 95 -30 108 -29z m-3343 -146 c0 -21 -17 -17 -23 5 -3 14 -1 18 9
14 8 -3 14 -11 14 -19z m50 -36 c0 -5 5 -6 12 -2 7 4 8 3 4 -4 -12 -20 -45
-14 -43 7 1 19 27 18 27 -1z m96 -69 c9 -15 -23 -10 -35 5 -10 12 -8 13 9 9
11 -3 23 -9 26 -14z m382 -235 c-13 -67 -16 -74 -27 -56 -7 11 29 125 36 118
2 -2 -2 -29 -9 -62z m2062 46 c0 -5 -4 -10 -10 -10 -5 0 -10 5 -10 10 0 6 5
10 10 10 6 0 10 -4 10 -10z m-2977 -110 c6 -24 -8 -36 -17 -14 -8 22 -7 34 3
34 5 0 11 -9 14 -20z m2297 -294 c0 -2 -8 -10 -17 -17 -16 -13 -17 -12 -4 4
13 16 21 21 21 13z m-1800 -36 c0 -5 -2 -10 -4 -10 -3 0 -8 5 -11 10 -3 6 -1
10 4 10 6 0 11 -4 11 -10z m50 -41 c11 -19 10 -20 -9 -10 -27 15 -36 31 -17
31 8 0 20 -9 26 -21z m-633 -746 c-3 -10 -5 -2 -5 17 0 19 2 27 5 18 2 -10 2
-26 0 -35z m573 -3 c-8 -15 -8 -30 -1 -53 15 -45 51 -227 51 -257 0 -21 -7
-28 -37 -39 -65 -21 -117 -44 -145 -63 -15 -11 -36 -21 -45 -23 -10 -3 -45
-14 -77 -25 -80 -27 -99 -27 -90 3 3 12 10 27 14 32 4 6 11 26 15 45 10 46 31
76 140 195 51 55 100 114 110 130 24 39 56 75 67 75 5 0 4 -9 -2 -20z m249
-216 c-17 -21 -21 -11 -8 22 10 23 13 25 16 11 3 -10 -1 -25 -8 -33z m-71 -94
c-7 -11 -16 -20 -20 -20 -4 0 -5 -6 -2 -13 8 -21 -42 -67 -72 -67 -21 0 -25 3
-19 18 4 9 10 25 12 35 3 11 12 16 22 13 9 -3 32 8 51 24 42 35 44 36 28 10z
m-650 -175 c-19 -13 -59 -28 -89 -34 -30 -6 -64 -13 -76 -17 -14 -4 -23 -2
-23 5 0 5 6 8 14 5 8 -3 17 -1 21 5 3 6 14 11 23 11 10 0 34 9 55 20 21 11 42
18 46 16 4 -3 17 1 27 8 10 8 23 12 27 9 5 -3 -7 -16 -25 -28z m912 -50 c30
-19 71 -43 90 -53 175 -89 167 -84 141 -94 -17 -6 -27 -5 -32 3 -4 6 -12 8
-19 4 -6 -4 -17 1 -24 10 -12 16 -13 16 -30 -1 -18 -17 -18 -17 -12 3 5 16 2
20 -14 19 -11 0 -25 -8 -30 -16 -8 -13 -10 -12 -10 3 0 9 5 17 10 17 6 0 10 5
10 11 0 6 -6 9 -14 6 -7 -3 -18 -1 -23 4 -6 6 -14 0 -23 -16 -7 -14 -17 -25
-20 -25 -11 0 -80 142 -74 152 8 13 16 10 74 -27z m-97 -35 c-3 -11 -10 -23
-16 -27 -5 -3 -8 -2 -5 3 3 5 8 17 11 27 9 24 16 22 10 -3z m815 -12 c17 -17
15 -23 -13 -36 -47 -21 -57 -9 -25 30 17 21 22 22 38 6z m-834 -36 c-6 -4 -28
-37 -48 -74 -21 -38 -39 -68 -41 -68 -7 0 26 74 40 90 7 8 16 25 19 38 4 12
15 22 24 22 11 0 13 -3 6 -8z m751 -31 c-6 -5 -20 -12 -32 -16 -18 -5 -22 -3
-17 9 3 9 12 16 20 16 8 0 14 5 14 12 0 9 3 9 12 0 8 -8 8 -15 3 -21z m-594
-60 c-6 -16 -10 -20 -10 -9 -1 9 -6 20 -12 24 -8 4 -9 -1 -5 -17 7 -23 6 -23
-8 -5 -14 17 -13 22 6 49 l21 30 9 -23 c5 -14 5 -34 -1 -49z m-406 -251 c6
-10 -61 -104 -113 -158 -30 -32 -30 -32 37 81 51 85 63 97 76 77z m462 -312
c-3 -8 -6 -5 -6 6 -1 11 2 17 5 13 3 -3 4 -12 1 -19z m-62 -118 c3 -5 1 -10
-4 -10 -6 0 -11 5 -11 10 0 6 2 10 4 10 3 0 8 -4 11 -10z m-65 -20 c0 -5 -5
-10 -11 -10 -5 0 -7 5 -4 10 3 6 8 10 11 10 2 0 4 -4 4 -10z m-240 -45 c0 -1
-6 -8 -14 -15 -12 -9 -15 -8 -13 8 0 12 6 18 14 15 7 -3 13 -6 13 -8z m-1010
-375 c0 -5 -4 -10 -10 -10 -5 0 -10 5 -10 10 0 6 5 10 10 10 6 0 10 -4 10 -10z
m3839 -184 c7 -8 8 -17 3 -20 -6 -3 -12 3 -15 14 -6 24 -4 25 12 6z m-19 -15
c0 -10 -24 -21 -47 -21 -13 0 -13 3 -3 15 13 16 50 21 50 6z m-200 -148 c11
-10 20 -23 20 -31 0 -8 -7 -6 -22 8 -16 15 -24 17 -30 8 -9 -15 -10 -6 -2 16
8 20 9 20 34 -1z m-75 -43 c3 -5 -1 -10 -9 -10 -9 0 -16 5 -16 10 0 6 4 10 9
10 6 0 13 -4 16 -10z m230 0 c3 -5 1 -10 -4 -10 -6 0 -11 5 -11 10 0 6 2 10 4
10 3 0 8 -4 11 -10z m-7 -47 c-9 -8 -21 -12 -27 -8 -16 9 -6 20 20 22 20 2 21
1 7 -14z m78 -8 c-3 -8 -1 -15 4 -15 13 0 9 -44 -6 -58 -9 -8 -14 -7 -18 3 -3
8 -1 15 5 15 6 0 10 10 9 23 -3 32 -1 47 6 47 3 0 4 -7 0 -15z m-439 -10 c8
-9 13 -19 10 -22 -6 -5 -37 21 -37 31 0 10 11 6 27 -9z m303 -5 c0 -5 -4 -10
-10 -10 -5 0 -10 5 -10 10 0 6 5 10 10 10 6 0 10 -4 10 -10z m45 -42 c-7 -36
-12 -44 -21 -35 -3 3 -2 12 2 19 9 13 10 18 13 38 0 6 3 10 6 10 3 0 3 -14 0
-32z m55 18 c0 -8 -4 -18 -10 -21 -5 -3 -10 -4 -10 -1 0 2 -3 11 -6 20 -4 11
-1 16 10 16 9 0 16 -6 16 -14z m365 -4 c-3 -3 -11 0 -18 7 -9 10 -8 11 6 5 10
-3 15 -9 12 -12z m-779 -11 c-4 -5 0 -11 6 -14 7 -2 9 -8 5 -13 -9 -10 -28 16
-21 28 3 4 7 8 10 8 3 0 3 -4 0 -9z m294 -27 c0 -2 -7 -4 -15 -4 -8 0 -15 4
-15 10 0 5 7 7 15 4 8 -4 15 -8 15 -10z m97 -29 c-16 -17 -17 -14 -10 14 4 15
8 19 13 10 5 -6 3 -18 -3 -24z m57 -16 c-3 -5 1 -12 9 -15 17 -6 8 -55 -11
-62 -9 -3 -10 3 -2 22 5 14 5 28 1 30 -5 3 -11 14 -14 25 -3 14 -1 18 9 14 8
-3 11 -9 8 -14z m-864 -9 c0 -13 -5 -18 -15 -14 -16 7 -19 17 -8 27 12 13 23
7 23 -13z m706 7 c8 3 14 0 14 -7 0 -15 -33 -9 -36 8 -1 7 0 8 2 3 3 -6 12 -7
20 -4z m109 -18 c-6 -19 -4 -21 16 -16 23 6 23 5 5 -9 -24 -17 -41 -4 -31 25
3 12 9 21 11 21 3 0 2 -10 -1 -21z m-857 -7 c6 -18 -15 -14 -22 4 -4 10 -1 14
6 12 6 -2 14 -10 16 -16z m798 3 c-8 -8 -18 -15 -22 -15 -3 0 -1 7 6 15 7 8
17 15 22 15 5 0 3 -7 -6 -15z m-852 -41 c3 -8 2 -12 -4 -9 -6 3 -10 10 -10 16
0 14 7 11 14 -7z m835 7 c9 -6 10 -11 2 -15 -6 -4 -11 -2 -11 4 0 6 -4 9 -9 5
-5 -3 -12 -1 -16 5 -8 12 15 13 34 1z m-715 -40 c-3 -3 -14 -6 -25 -8 -17 -3
-18 0 -9 17 9 16 13 18 24 8 8 -7 12 -15 10 -17z m766 14 c-7 -8 -17 -15 -22
-15 -6 0 -5 7 2 15 7 8 17 15 22 15 6 0 5 -7 -2 -15z m-395 -25 c-10 -11 -15
-20 -11 -20 4 0 2 -9 -4 -20 -9 -16 -8 -22 4 -26 12 -5 8 -13 -19 -40 -20 -19
-41 -34 -48 -34 -9 0 -9 2 0 8 6 4 10 24 9 44 -1 33 0 35 19 25 18 -9 19 -9 6
6 -11 14 -11 18 3 23 9 3 14 10 11 14 -3 5 5 16 17 24 30 22 35 20 13 -4z
m1120 10 c3 -5 3 -15 -1 -21 -6 -11 -23 6 -24 24 0 10 18 9 25 -3z m-765 -10
c0 -5 -5 -10 -11 -10 -5 0 -7 5 -4 10 3 6 8 10 11 10 2 0 4 -4 4 -10z m115 0
c3 -5 1 -10 -4 -10 -6 0 -11 5 -11 10 0 6 2 10 4 10 3 0 8 -4 11 -10z m-85
-20 c0 -5 -5 -10 -11 -10 -5 0 -7 5 -4 10 3 6 8 10 11 10 2 0 4 -4 4 -10z
m-1070 -4 c0 -3 -4 -8 -10 -11 -5 -3 -10 -1 -10 4 0 6 5 11 10 11 6 0 10 -2
10 -4z m577 -12 c4 -13 -15 -40 -23 -31 -4 3 -2 13 5 21 8 10 9 16 1 19 -6 3
-5 4 2 3 6 -1 13 -6 15 -12z m433 12 c0 -3 -4 -8 -10 -11 -5 -3 -10 -1 -10 4
0 6 5 11 10 11 6 0 10 -2 10 -4z m160 0 c0 -2 -7 -6 -15 -10 -8 -3 -15 -1 -15
4 0 6 7 10 15 10 8 0 15 -2 15 -4z m670 -15 c0 -6 -4 -13 -10 -16 -5 -3 -10 1
-10 9 0 9 5 16 10 16 6 0 10 -4 10 -9z m-740 -11 c0 -5 -5 -10 -11 -10 -5 0
-7 5 -4 10 3 6 8 10 11 10 2 0 4 -4 4 -10z m-1518 -12 c3 -7 -7 -23 -21 -36
-30 -28 -40 -13 -14 22 20 28 29 32 35 14z m1573 -8 c-3 -5 -13 -6 -21 -3 -12
4 -13 8 -3 14 15 9 32 2 24 -11z m-95 7 c0 -2 -9 -12 -20 -22 -17 -16 -20 -16
-20 -2 0 8 8 18 18 20 9 3 18 5 20 6 1 0 2 -1 2 -2z m910 -12 c0 -8 -4 -15
-10 -15 -5 0 -10 7 -10 15 0 8 5 15 10 15 6 0 10 -7 10 -15z m-860 -5 c0 -5
-2 -10 -4 -10 -3 0 -8 5 -11 10 -3 6 -1 10 4 10 6 0 11 -4 11 -10z m106 -33
c4 -6 4 -9 -1 -5 -4 4 -14 3 -20 -2 -9 -8 -14 -4 -17 14 -4 22 -3 24 13 16 10
-6 21 -16 25 -23z m-142 14 c3 -5 -9 -14 -27 -20 l-32 -11 24 20 c27 23 28 23
35 11z m-1227 -38 c-3 -3 -13 1 -21 10 -8 8 -12 17 -9 20 3 3 12 -1 20 -9 9
-8 13 -18 10 -21z m1163 29 c0 -4 -9 -13 -20 -20 -22 -13 -27 -3 -8 16 14 14
28 16 28 4z m990 -11 c10 -18 0 -53 -14 -48 -6 2 -10 12 -9 21 1 14 -4 16 -21
12 -30 -7 -40 4 -18 20 20 15 50 13 62 -5z m48 -9 c-7 -8 -12 -23 -10 -34 2
-10 -3 -18 -11 -18 -12 0 -13 7 -5 39 7 28 14 38 24 34 12 -4 12 -8 2 -21z
m-936 -4 c-6 -6 -15 -8 -19 -4 -4 4 -1 11 7 16 19 12 27 3 12 -12z m-1512 3
c0 -6 -4 -13 -10 -16 -5 -3 -10 1 -10 9 0 9 5 16 10 16 6 0 10 -4 10 -9z m38
-19 c2 -7 -3 -12 -11 -12 -9 0 -17 -6 -20 -12 -2 -7 -7 -10 -11 -6 -10 8 16
49 28 45 5 -2 12 -9 14 -15z m1417 -2 c-10 -11 -23 -20 -29 -20 -6 0 0 9 14
20 32 25 38 25 15 0z m-1375 0 c0 -5 -2 -10 -4 -10 -3 0 -8 5 -11 10 -3 6 -1
10 4 10 6 0 11 -4 11 -10z m1210 0 c0 -5 -5 -10 -11 -10 -5 0 -7 5 -4 10 3 6
8 10 11 10 2 0 4 -4 4 -10z m120 0 c0 -5 -5 -10 -11 -10 -5 0 -7 5 -4 10 3 6
8 10 11 10 2 0 4 -4 4 -10z m143 -13 c-5 -8 -8 -7 -11 1 -3 10 -7 10 -20 0
-15 -12 -15 -11 -4 4 14 18 47 13 35 -5z m50 16 c-18 -7 -16 -23 2 -23 17 0
18 -2 9 -24 -3 -9 -11 -16 -16 -16 -6 0 -7 7 -4 15 3 9 -1 18 -9 22 -12 4 -13
9 -4 19 6 8 17 14 23 13 7 0 6 -2 -1 -6z m927 -8 c0 -8 -4 -15 -10 -15 -5 0
-10 7 -10 15 0 8 5 15 10 15 6 0 10 -7 10 -15z m-4390 -11 c0 -8 -4 -12 -10
-9 -5 3 -10 10 -10 16 0 5 5 9 10 9 6 0 10 -7 10 -16z m3251 -37 c-8 -8 -11
-8 -11 0 0 6 -3 20 -7 30 -7 17 -6 17 11 0 14 -14 16 -21 7 -30z m118 12 c-6
-3 -7 -14 -3 -25 3 -11 2 -14 -3 -8 -4 6 -13 13 -19 15 -8 3 -9 12 -3 27 7 19
11 21 23 10 8 -7 10 -16 5 -19z m-1529 9 c0 -19 -18 -44 -25 -36 -4 3 0 15 7
27 15 24 18 26 18 9z m1464 -19 c-3 -6 2 -17 12 -24 11 -9 14 -14 7 -15 -18 0
-16 -25 2 -44 8 -8 15 -17 15 -20 0 -3 -7 -6 -15 -6 -8 0 -15 9 -15 20 0 11
-4 20 -10 20 -5 0 -10 -5 -10 -11 0 -6 -7 -4 -15 5 -8 8 -15 18 -15 22 0 3 7
1 15 -6 12 -10 15 -10 15 3 0 8 6 17 12 19 8 3 4 9 -10 17 -12 6 -22 17 -22
24 0 7 4 6 10 -3 8 -13 10 -12 10 3 0 10 5 15 10 12 6 -4 8 -11 4 -16z m146
-44 c-1 -5 -7 -2 -14 8 -16 21 -30 22 -22 2 3 -8 1 -15 -3 -15 -5 0 -18 -3
-28 -6 -17 -5 -17 -5 1 10 10 8 15 20 11 26 -4 6 -4 19 0 28 6 15 10 13 31
-13 13 -16 24 -34 24 -40z m50 51 c0 -3 -4 -8 -10 -11 -5 -3 -10 -1 -10 4 0 6
5 11 10 11 6 0 10 -2 10 -4z m-280 -26 c0 -3 -9 -11 -20 -18 -12 -7 -18 -18
-14 -24 4 -7 3 -8 -4 -4 -15 9 -16 36 -1 36 5 0 8 4 5 8 -2 4 4 8 15 8 10 0
19 -3 19 -6z m-1515 -20 c0 -9 -8 -14 -20 -13 -11 1 -23 -3 -26 -9 -4 -6 -6 0
-6 13 2 20 7 25 27 24 15 0 25 -6 25 -15z m51 -38 c-6 -5 -36 23 -36 34 0 4 9
-1 20 -11 11 -10 18 -20 16 -23z m1764 19 c0 -6 -4 -13 -10 -16 -5 -3 -10 1
-10 9 0 9 5 16 10 16 6 0 10 -4 10 -9z m-106 -16 c-5 -12 -34 -17 -34 -5 0 11
9 17 24 17 8 0 12 -6 10 -12z m66 -18 c9 -4 5 -6 -10 -4 -16 1 -26 9 -28 22
-2 18 -1 18 10 4 7 -9 20 -19 28 -22z m-1670 3 c0 -5 -5 -10 -11 -10 -5 0 -7
5 -4 10 3 6 8 10 11 10 2 0 4 -4 4 -10z m1790 0 c0 -5 -5 -10 -11 -10 -5 0 -7
5 -4 10 3 6 8 10 11 10 2 0 4 -4 4 -10z m-335 -10 c3 -5 2 -10 -4 -10 -5 0
-13 5 -16 10 -3 6 -2 10 4 10 5 0 13 -4 16 -10z m-1565 -11 c0 -5 -5 -7 -12
-3 -8 5 -9 2 -5 -9 3 -10 2 -17 -3 -17 -11 0 -13 23 -3 33 10 10 23 8 23 -4z
m1715 -11 c4 4 6 1 4 -6 -7 -21 -22 -16 -31 10 -7 21 -7 21 5 6 8 -10 18 -14
22 -10z m-169 -40 c-12 -20 -26 -24 -26 -8 0 6 5 10 11 10 6 0 8 9 4 21 -6 19
-5 20 7 8 12 -10 13 -18 4 -31z m-1499 16 c-3 -3 -12 -4 -19 -1 -8 3 -5 6 6 6
11 1 17 -2 13 -5z m1613 -40 c0 -13 -4 -24 -9 -24 -4 0 -8 13 -7 29 1 35 16
30 16 -5z m139 6 c-6 -4 -12 -19 -12 -33 -1 -14 -6 -22 -10 -17 -5 4 -5 19 -1
31 4 13 7 31 5 38 -2 13 0 13 14 1 11 -9 13 -15 4 -20z m-379 10 c0 -5 -2 -10
-4 -10 -3 0 -8 5 -11 10 -3 6 -1 10 4 10 6 0 11 -4 11 -10z m427 -5 c0 -8 -4
-12 -9 -9 -5 3 -6 10 -3 15 9 13 12 11 12 -6z m-1830 -10 c0 -8 -4 -15 -8 -15
-11 0 -20 16 -12 24 11 11 20 7 20 -9z m73 0 c0 -12 -19 -12 -23 0 -4 9 -1 12
9 8 7 -3 14 -7 14 -8z m1415 3 c5 4 5 2 2 -5 -4 -6 -16 -9 -27 -6 -11 3 -17 9
-14 15 3 5 11 5 18 -1 7 -6 17 -7 21 -3z m-1564 -21 c-10 -9 -11 -8 -5 6 3 10
9 15 12 12 3 -3 0 -11 -7 -18z m3103 6 c6 -15 9 -15 17 -3 9 12 10 11 5 -4 -4
-10 -1 -25 5 -32 16 -20 -5 -18 -25 2 -9 8 -20 12 -26 9 -5 -3 -10 1 -10 10 0
10 5 13 12 9 8 -5 9 -2 5 9 -3 10 -2 17 2 17 5 0 12 -8 15 -17z m-3184 -3 c0
-5 -2 -10 -4 -10 -3 0 -8 5 -11 10 -3 6 -1 10 4 10 6 0 11 -4 11 -10z m1590 0
c0 -5 -4 -10 -10 -10 -5 0 -10 5 -10 10 0 6 5 10 10 10 6 0 10 -4 10 -10z
m134 -20 c-6 -6 -10 -2 -11 12 -2 16 1 18 10 9 7 -7 8 -14 1 -21z m1516 20 c0
-5 -4 -10 -10 -10 -5 0 -10 5 -10 10 0 6 5 10 10 10 6 0 10 -4 10 -10z m-3190
-14 c0 -3 -4 -8 -10 -11 -5 -3 -10 -1 -10 4 0 6 5 11 10 11 6 0 10 -2 10 -4z
m48 -23 c-7 -9 -14 -11 -16 -5 -2 6 -11 8 -20 5 -14 -4 -14 -3 -2 5 8 6 18 8
22 6 4 -3 8 0 8 6 0 6 5 8 10 5 8 -5 7 -12 -2 -22z m-164 3 c-10 -8 -21 -12
-24 -10 -5 6 21 24 34 24 6 0 1 -6 -10 -14z m221 4 c3 -5 2 -10 -4 -10 -5 0
-13 5 -16 10 -3 6 -2 10 4 10 5 0 13 -4 16 -10z m1449 -6 c6 -15 4 -15 -11 -3
-10 7 -20 15 -22 16 -2 2 3 3 11 3 9 0 19 -7 22 -16z m-94 -4 c0 -5 -4 -10
-10 -10 -5 0 -10 5 -10 10 0 6 5 10 10 10 6 0 10 -4 10 -10z m441 -19 c-12
-12 -21 -18 -21 -14 0 10 33 44 37 39 3 -2 -5 -14 -16 -25z m-396 9 c-3 -5
-11 -10 -16 -10 -6 0 -7 5 -4 10 3 6 11 10 16 10 6 0 7 -4 4 -10z m290 0 c3
-5 1 -10 -4 -10 -6 0 -11 5 -11 10 0 6 2 10 4 10 3 0 8 -4 11 -10z m55 -3 c0
-7 -6 -21 -13 -32 -11 -14 -16 -15 -22 -5 -5 8 -1 16 10 22 14 8 15 12 4 19
-11 7 -10 9 4 9 9 0 17 -6 17 -13z m-1779 -9 c0 -10 2 -10 6 0 2 6 9 9 15 6 5
-3 2 -14 -8 -25 -12 -13 -13 -19 -4 -19 10 0 10 -3 0 -15 -20 -24 -27 -18 -28
25 -1 22 3 40 8 40 6 0 10 -6 11 -12z m1519 2 c0 -5 -2 -10 -4 -10 -3 0 -8 5
-11 10 -3 6 -1 10 4 10 6 0 11 -4 11 -10z m-1762 -20 c3 -7 0 -10 -6 -6 -6 4
-17 -2 -24 -14 -20 -32 -30 -23 -13 11 16 30 35 35 43 9z m78 -7 c-7 -7 -26 7
-26 19 0 6 6 6 15 -2 9 -7 13 -15 11 -17z m3264 5 c18 -22 12 -38 -15 -38 -26
0 -37 17 -26 39 15 26 19 26 41 -1z m-1600 -8 c0 -5 -9 -14 -20 -20 -15 -8
-20 -8 -18 2 7 29 38 44 38 18z m1780 10 c0 -5 -5 -10 -11 -10 -5 0 -7 5 -4
10 3 6 8 10 11 10 2 0 4 -4 4 -10z m-3320 -9 c0 -5 -7 -14 -15 -21 -16 -14
-18 -10 -9 14 6 17 24 22 24 7z m1690 -1 c0 -5 -6 -10 -13 -10 -7 0 -20 -12
-30 -27 l-18 -28 3 25 c2 14 13 30 28 37 30 15 30 15 30 3z m159 -23 c0 -12
-3 -16 -6 -9 -6 15 -33 16 -33 1 0 -5 -5 -7 -10 -4 -6 4 -1 14 12 25 27 21 38
17 37 -13z m61 12 c-12 -21 -31 -22 -38 -1 -2 7 2 10 11 6 8 -3 18 -1 22 5 12
20 16 11 5 -10z m-565 1 c-3 -5 -14 -10 -23 -9 -14 0 -13 2 3 9 27 11 27 11
20 0z m265 -5 c0 -8 -2 -15 -4 -15 -2 0 -6 7 -10 15 -3 8 -1 15 4 15 6 0 10
-7 10 -15z m-1745 -5 c-3 -5 -11 -10 -16 -10 -6 0 -7 5 -4 10 3 6 11 10 16 10
6 0 7 -4 4 -10z m93 -15 c-3 -3 -9 2 -12 12 -6 14 -5 15 5 6 7 -7 10 -15 7
-18z m1454 3 c-7 -7 -12 -8 -12 -2 0 14 12 26 19 19 2 -3 -1 -11 -7 -17z
m1978 1 c0 -14 -17 -10 -23 5 -4 10 -1 13 9 9 7 -3 14 -9 14 -14z m-5213 -11
c-3 -8 -6 -5 -6 6 -1 11 2 17 5 13 3 -3 4 -12 1 -19z m3543 -4 c0 -20 -7 -17
-20 6 -9 16 -8 18 5 14 8 -4 15 -12 15 -20z m820 22 c0 -3 -4 -8 -10 -11 -5
-3 -10 -1 -10 4 0 6 5 11 10 11 6 0 10 -2 10 -4z m-1060 -28 c0 -19 -2 -20
-10 -8 -13 19 -13 30 0 30 6 0 10 -10 10 -22z m90 12 c0 -5 -4 -10 -10 -10 -5
0 -10 5 -10 10 0 6 5 10 10 10 6 0 10 -4 10 -10z m-50 -31 c0 -6 -4 -7 -10 -4
-5 3 -10 11 -10 16 0 6 5 7 10 4 6 -3 10 -11 10 -16z m168 -4 c12 -14 18 -25
14 -25 -5 0 -18 11 -30 25 -12 14 -18 25 -14 25 5 0 18 -11 30 -25z m1446 8
c-16 -17 -16 -18 -1 -21 9 -2 17 -8 17 -14 0 -12 -42 14 -48 30 -3 9 12 17 41
21 5 0 1 -7 -9 -16z m-3294 -3 c0 -5 -9 -12 -20 -15 -11 -4 -17 -11 -14 -17 4
-6 -2 -6 -15 1 -20 11 -26 23 -17 32 8 8 66 7 66 -1z m26 -5 c-3 -8 -1 -15 4
-15 5 0 7 -8 3 -17 -3 -10 -3 -15 2 -11 10 9 38 -19 31 -31 -9 -14 -56 -10
-56 5 0 8 -5 14 -11 14 -8 0 -7 6 2 17 8 10 9 14 2 10 -6 -4 -14 -3 -17 2 -4
5 3 12 14 16 11 3 20 11 20 16 0 5 3 9 6 9 3 0 4 -7 0 -15z m1734 11 c0 -3 -4
-8 -10 -11 -5 -3 -10 -1 -10 4 0 6 5 11 10 11 6 0 10 -2 10 -4z m335 -34 c-4
-4 -10 -1 -13 7 -4 11 -6 11 -13 0 -4 -7 -11 -10 -14 -7 -4 4 -1 13 6 21 12
12 15 12 27 0 8 -8 11 -17 7 -21z m591 24 c15 -16 18 -26 6 -26 -4 0 -13 9
-20 20 -14 23 -7 26 14 6z m-536 0 c0 -2 -8 -10 -17 -17 -16 -13 -17 -12 -4 4
13 16 21 21 21 13z m-435 -16 c-3 -5 -13 -10 -21 -10 -8 0 -12 5 -9 10 3 6 13
10 21 10 8 0 12 -4 9 -10z m1065 0 c0 -5 -2 -10 -4 -10 -3 0 -8 5 -11 10 -3 6
-1 10 4 10 6 0 11 -4 11 -10z m-1007 -7 c-18 -7 -16 -23 2 -23 8 0 15 -8 14
-17 0 -11 -3 -13 -6 -5 -2 6 -11 12 -19 12 -8 0 -14 9 -14 20 0 13 6 20 18 19
10 0 12 -3 5 -6z m40 -13 c-3 -12 -8 -19 -11 -16 -5 6 5 36 12 36 2 0 2 -9 -1
-20z m337 -10 c0 -5 -5 -10 -11 -10 -5 0 -7 5 -4 10 3 6 8 10 11 10 2 0 4 -4
4 -10z m1004 1 c3 -5 -1 -11 -9 -15 -15 -6 -29 7 -18 18 9 9 21 8 27 -3z
m-1491 -8 c-7 -2 -19 -2 -25 0 -7 3 -2 5 12 5 14 0 19 -2 13 -5z m41 -2 c3 -5
-1 -14 -9 -21 -11 -9 -14 -8 -12 9 1 22 12 28 21 12z m1646 -5 c0 -3 -4 -8
-10 -11 -5 -3 -10 -1 -10 4 0 6 5 11 10 11 6 0 10 -2 10 -4z m-1530 -10 c0 -3
-4 -8 -10 -11 -5 -3 -10 -1 -10 4 0 6 5 11 10 11 6 0 10 -2 10 -4z"/>
<path d="M2580 9088 c0 -4 7 -8 15 -8 8 0 15 4 15 8 0 5 -7 9 -15 9 -8 0 -15
-4 -15 -9z"/>
<path d="M3646 6248 c3 -4 12 -8 20 -8 8 0 14 4 14 8 0 4 -9 8 -19 8 -11 0
-17 -4 -15 -8z"/>
<path d="M1115 6110 c3 -5 8 -10 11 -10 2 0 4 5 4 10 0 6 -5 10 -11 10 -5 0
-7 -4 -4 -10z"/>
<path d="M860 6071 c0 -10 30 -24 37 -17 3 3 2 9 -2 15 -8 13 -35 15 -35 2z"/>
<path d="M980 6066 c0 -2 8 -10 18 -17 15 -13 16 -12 3 4 -13 16 -21 21 -21
13z"/>
<path d="M1180 6055 c-10 -12 -10 -15 4 -15 9 0 16 7 16 15 0 8 -2 15 -4 15
-2 0 -9 -7 -16 -15z"/>
<path d="M1120 6041 c0 -6 5 -13 12 -17 7 -5 3 -10 -12 -16 -23 -9 -23 -18 2
-22 7 -1 18 -5 24 -8 6 -4 20 0 30 8 18 15 18 15 -8 9 -27 -5 -36 3 -21 19 15
15 10 36 -8 36 -10 0 -19 -4 -19 -9z"/>
<path d="M820 6019 c0 -5 5 -7 10 -4 6 3 10 8 10 11 0 2 -4 4 -10 4 -5 0 -10
-5 -10 -11z"/>
<path d="M1010 6010 c-12 -8 -10 -10 8 -10 13 0 20 4 17 10 -7 12 -6 12 -25 0z"/>
<path d="M940 5990 c0 -5 7 -10 16 -10 8 0 12 5 9 10 -3 6 -10 10 -16 10 -5 0
-9 -4 -9 -10z"/>
<path d="M1081 5951 c-27 -37 -12 -49 19 -16 17 18 21 28 13 36 -7 7 -17 2
-32 -20z"/>
<path d="M1165 5960 c-3 -6 1 -7 9 -4 18 7 21 14 7 14 -6 0 -13 -4 -16 -10z"/>
<path d="M1155 5920 c-3 -5 1 -10 9 -10 8 0 18 5 21 10 3 6 -1 10 -9 10 -8 0
-18 -4 -21 -10z"/>
<path d="M381 5794 c0 -11 3 -14 6 -6 3 7 2 16 -1 19 -3 4 -6 -2 -5 -13z"/>
<path d="M5210 5538 c-23 -19 -23 -20 -3 -14 15 5 25 2 32 -11 6 -10 11 -15
12 -10 1 4 2 10 3 15 1 4 5 13 9 20 5 7 4 12 -2 12 -6 0 -11 -4 -11 -10 0 -5
-5 -10 -11 -10 -6 0 -9 7 -5 15 7 19 6 19 -24 -7z"/>
<path d="M5085 5470 c-3 -5 -1 -10 4 -10 6 0 11 5 11 10 0 6 -2 10 -4 10 -3 0
-8 -4 -11 -10z"/>
<path d="M5131 5456 c-9 -11 -6 -15 15 -20 34 -9 39 -3 15 18 -15 14 -20 14
-30 2z"/>
<path d="M5088 5435 c-3 -3 -3 -16 -1 -29 5 -26 41 -42 58 -25 6 6 2 12 -13
15 -13 4 -22 14 -22 25 0 18 -11 25 -22 14z"/>
<path d="M5070 5360 c0 -13 18 -22 24 -11 3 5 -1 11 -9 15 -8 3 -15 1 -15 -4z"/>
<path d="M1326 5388 c5 -7 9 -28 9 -45 -1 -26 2 -30 11 -20 16 17 6 77 -13 77
-11 0 -13 -4 -7 -12z"/>
<path d="M3025 4060 c-3 -5 -1 -10 4 -10 6 0 11 5 11 10 0 6 -2 10 -4 10 -3 0
-8 -4 -11 -10z"/>
<path d="M2972 4039 c2 -7 10 -15 17 -17 8 -3 12 1 9 9 -2 7 -10 15 -17 17 -8
3 -12 -1 -9 -9z"/>
<path d="M2650 3620 c0 -14 5 -18 17 -13 10 4 14 2 9 -5 -3 -6 -2 -13 3 -17 6
-3 9 7 8 25 -2 35 -37 45 -37 10z"/>
<path d="M1315 2560 c3 -5 12 -7 20 -3 21 7 19 13 -6 13 -11 0 -18 -4 -14 -10z"/>
<path d="M3352 9350 c-42 -81 -54 -111 -28 -74 23 32 78 145 74 150 -3 2 -23
-32 -46 -76z"/>
<path d="M2585 9369 c-4 -6 -5 -12 -2 -15 2 -3 7 2 10 11 7 17 1 20 -8 4z"/>
<path d="M3642 9343 c-6 -20 -7 -32 -2 -27 10 10 25 64 18 64 -3 0 -10 -16
-16 -37z"/>
<path d="M2565 9330 c-3 -5 -1 -10 4 -10 6 0 11 5 11 10 0 6 -2 10 -4 10 -3 0
-8 -4 -11 -10z"/>
<path d="M3607 9256 c-4 -10 -7 -25 -6 -34 0 -11 4 -9 10 7 5 13 8 29 6 35 -2
5 -6 2 -10 -8z"/>
<path d="M3292 9230 c-7 -11 -8 -20 -3 -20 9 0 24 30 18 36 -1 2 -8 -6 -15
-16z"/>
<path d="M3227 9088 c-196 -446 -307 -918 -307 -1308 1 -275 81 -559 214 -756
18 -27 23 -29 34 -17 11 11 11 17 2 28 -7 8 -16 12 -21 9 -8 -5 -14 18 -10 39
1 4 -5 18 -14 30 -17 24 -20 41 -6 33 5 -4 4 5 -2 19 -7 14 -18 25 -25 25 -8
0 -12 5 -10 12 3 7 -6 23 -18 35 -13 13 -26 40 -29 61 -4 20 -14 62 -22 92 -9
30 -17 62 -17 70 -1 9 -5 21 -10 28 -11 18 4 102 23 123 8 11 21 19 29 19 7 0
23 7 35 14 18 12 50 20 110 25 12 1 8 49 -6 63 -24 24 -49 68 -39 68 6 0 6 9
-1 25 -7 14 -15 25 -19 25 -3 0 -9 13 -13 30 -4 16 -12 33 -19 37 -16 11 -46
76 -46 102 0 12 -5 21 -12 21 -6 0 -9 3 -5 6 3 4 0 18 -7 33 -15 29 -15 149 0
159 5 4 9 16 9 27 0 11 2 39 6 62 3 25 1 47 -5 54 -8 9 -7 10 6 6 29 -10 41
28 35 114 -4 63 -2 80 12 93 9 9 16 31 17 49 2 69 4 78 26 86 16 6 18 10 9 16
-11 6 -11 9 0 16 7 4 14 20 15 36 3 50 4 53 19 53 9 0 12 6 9 15 -4 8 -1 15 6
15 7 0 10 7 6 16 -4 11 1 18 14 21 22 6 27 29 8 36 -9 4 -8 6 3 6 11 1 16 13
18 43 1 23 8 56 15 73 21 49 38 106 33 111 -2 2 -25 -42 -50 -98z"/>
<path d="M3571 9144 c0 -11 3 -14 6 -6 3 7 2 16 -1 19 -3 4 -6 -2 -5 -13z"/>
<path d="M1600 9109 c0 -5 5 -7 10 -4 6 3 10 8 10 11 0 2 -4 4 -10 4 -5 0 -10
-5 -10 -11z"/>
<path d="M1796 9063 c-6 -14 -5 -15 5 -6 7 7 10 15 7 18 -3 3 -9 -2 -12 -12z"/>
<path d="M2665 9050 c3 -5 11 -10 16 -10 6 0 7 5 4 10 -3 6 -11 10 -16 10 -6
0 -7 -4 -4 -10z"/>
<path d="M3531 9038 c0 -10 -9 -22 -20 -27 -14 -8 -19 -22 -19 -59 0 -27 -7
-63 -17 -81 -9 -18 -12 -30 -6 -27 6 4 11 3 11 -3 0 -5 -4 -12 -9 -15 -4 -3
-11 -38 -14 -78 -4 -40 -12 -89 -19 -108 -9 -25 -12 -120 -13 -335 0 -258 3
-311 19 -380 10 -44 20 -93 22 -110 2 -16 9 -34 14 -39 6 -6 10 -29 10 -53 0
-24 5 -43 11 -43 6 0 8 -9 4 -20 -5 -15 -2 -20 10 -20 9 0 19 -9 22 -20 3 -11
9 -20 14 -20 5 0 9 -7 9 -17 0 -9 2 -14 5 -11 3 3 -10 54 -30 114 -106 331
-122 713 -44 1090 17 82 35 171 40 197 6 27 8 56 6 65 -4 16 -5 16 -6 0z"/>
<path d="M2675 8960 c-3 -6 1 -7 9 -4 18 7 21 14 7 14 -6 0 -13 -4 -16 -10z"/>
<path d="M2600 8924 c0 -10 5 -12 13 -7 6 4 23 6 37 5 23 -1 23 -1 5 7 -31 15
-55 13 -55 -5z"/>
<path d="M997 8913 c-13 -12 -7 -21 18 -25 18 -4 25 -1 25 10 0 8 -3 12 -7 9
-3 -4 -11 -2 -18 3 -7 5 -15 7 -18 3z"/>
<path d="M1055 8899 c-11 -17 1 -21 15 -4 8 9 8 15 2 15 -6 0 -14 -5 -17 -11z"/>
<path d="M2676 8898 c3 -5 10 -6 15 -3 13 9 11 12 -6 12 -8 0 -12 -4 -9 -9z"/>
<path d="M2620 8860 c0 -5 5 -10 11 -10 5 0 7 5 4 10 -3 6 -8 10 -11 10 -2 0
-4 -4 -4 -10z"/>
<path d="M2660 8820 c0 -5 7 -10 16 -10 8 0 12 5 9 10 -3 6 -10 10 -16 10 -5
0 -9 -4 -9 -10z"/>
<path d="M2780 8746 c0 -2 7 -6 15 -10 8 -3 15 -1 15 4 0 6 -7 10 -15 10 -8 0
-15 -2 -15 -4z"/>
<path d="M3646 7390 c4 -14 13 -37 20 -52 12 -24 12 -28 -4 -38 -15 -10 -14
-10 5 -5 17 5 23 0 32 -28 7 -19 9 -41 5 -50 -7 -20 12 -23 20 -4 3 6 3 0 0
-14 -4 -17 0 -32 11 -42 9 -9 14 -21 11 -26 -3 -5 1 -14 9 -21 14 -11 14 -15
-1 -31 -10 -11 -12 -19 -6 -19 17 0 15 -45 -3 -60 -8 -7 -15 -22 -15 -34 0
-29 -9 -38 -55 -60 -22 -11 -52 -25 -67 -33 -14 -7 -31 -13 -37 -13 -29 0 -50
-38 -62 -111 -11 -69 -14 -76 -33 -71 -51 13 211 -173 524 -372 41 -26 122
-79 180 -117 149 -98 136 -93 132 -55 -2 18 7 69 21 112 14 43 27 111 30 149
3 39 3 60 1 48 -3 -13 -10 -23 -15 -23 -5 0 -9 -6 -8 -12 4 -22 -13 -88 -22
-88 -5 0 -6 -6 -3 -14 3 -8 -4 -16 -18 -20 -13 -4 -18 -10 -11 -12 18 -8 4
-34 -14 -27 -11 4 -14 2 -9 -5 9 -15 -7 -15 -22 0 -8 8 -15 8 -25 -1 -12 -9
-16 -8 -21 5 -3 9 -4 19 -1 23 2 4 -9 8 -26 8 -19 0 -25 -3 -17 -9 8 -4 8 -8
2 -8 -6 0 -24 11 -40 25 -16 14 -32 25 -36 25 -4 0 -13 6 -21 14 -7 8 -38 29
-68 47 -57 34 -99 68 -99 80 0 4 11 10 24 13 23 6 71 42 214 163 88 74 118 83
169 53 60 -35 20 2 -85 81 -98 74 -235 191 -306 264 -30 31 -36 34 -22 12 20
-33 134 -147 146 -147 10 0 60 -51 60 -61 0 -9 -34 -7 -47 3 -9 7 -15 5 -19
-6 -8 -20 -24 -21 -24 -1 0 8 5 15 11 15 5 0 7 5 3 11 -5 8 -9 7 -14 -1 -9
-14 -40 -7 -40 9 0 6 7 8 15 5 8 -4 15 -1 15 5 0 19 -29 12 -40 -9 -8 -15 -8
-20 1 -20 6 0 1 -9 -12 -19 -27 -22 -38 -19 -19 4 7 9 9 15 4 14 -5 -1 -13 0
-19 1 -28 8 -51 3 -63 -13 -17 -22 -6 -61 15 -53 8 3 21 -1 29 -9 14 -13 14
-15 1 -15 -9 0 -21 -13 -28 -29 -9 -19 -18 -27 -28 -23 -10 4 -13 1 -8 -11 3
-9 -1 -21 -10 -29 -15 -11 -16 -11 -10 5 3 9 3 17 -2 17 -4 0 -8 6 -9 13 0 6
-5 28 -10 47 -5 21 -4 49 1 70 12 43 9 224 -4 228 -5 2 -9 13 -9 23 0 12 4 17
11 13 6 -3 15 -1 19 6 6 9 14 8 34 -5 38 -25 33 -1 -12 54 -36 43 -119 167
-136 201 -4 8 -16 31 -27 50 -15 26 -18 29 -13 10z m289 -607 c-28 -20 -41
-16 -20 7 10 11 22 17 28 13 6 -4 3 -12 -8 -20z m85 -19 c0 -17 -22 -14 -28 4
-2 7 3 12 12 12 9 0 16 -7 16 -16z m46 -30 c-14 -12 -22 -25 -18 -28 3 -4 -2
-4 -11 0 -20 7 -17 31 3 26 7 -2 10 3 7 11 -4 11 2 14 19 13 l25 -1 -25 -21z
m-66 5 c0 -14 -26 -39 -40 -39 -7 0 -9 -8 -5 -19 7 -22 -30 -37 -39 -15 -3 8
0 11 10 7 19 -7 18 17 -2 45 -18 26 -8 29 17 6 16 -15 19 -14 31 5 14 23 28
28 28 10z m110 -8 c0 -5 -7 -11 -14 -14 -10 -4 -13 -1 -9 9 6 15 23 19 23 5z"/>
<path d="M125 7200 c3 -5 8 -10 11 -10 2 0 4 5 4 10 0 6 -5 10 -11 10 -5 0 -7
-4 -4 -10z"/>
<path d="M147 7157 c-4 -10 2 -13 19 -9 13 2 24 8 24 13 0 14 -37 10 -43 -4z"/>
<path d="M3393 7148 c-11 -13 -35 -45 -54 -73 -47 -69 -89 -106 -113 -99 -14
5 -18 2 -13 -9 4 -11 0 -13 -16 -9 -17 4 -11 -7 27 -56 46 -58 202 -202 228
-211 7 -2 -2 8 -20 24 -21 18 -32 34 -29 45 2 10 -4 23 -13 30 -10 7 -16 19
-13 27 3 7 0 13 -7 13 -7 0 -9 8 -5 20 3 11 2 20 -3 20 -16 0 -49 34 -57 59
-7 22 -5 23 19 17 18 -4 26 -2 26 7 0 16 59 52 80 49 12 -2 15 11 17 64 2 63
-8 104 -26 104 -4 0 -17 -10 -28 -22z"/>
<path d="M90 7150 c0 -5 5 -10 11 -10 5 0 7 5 4 10 -3 6 -8 10 -11 10 -2 0 -4
-4 -4 -10z"/>
<path d="M120 7110 c0 -5 4 -10 9 -10 6 0 13 5 16 10 3 6 -1 10 -9 10 -9 0
-16 -4 -16 -10z"/>
<path d="M220 7105 c7 -9 15 -13 17 -11 7 7 -7 26 -19 26 -6 0 -6 -6 2 -15z"/>
<path d="M13 7044 c-7 -7 -13 -23 -13 -35 0 -21 1 -22 20 -4 20 18 26 40 13
48 -5 3 -14 -1 -20 -9z"/>
<path d="M3605 7050 c-3 -5 -12 -7 -20 -3 -22 8 -18 -6 8 -28 21 -17 21 -18 3
-19 -15 0 -17 -3 -9 -11 21 -21 43 -2 41 36 -1 34 -11 45 -23 25z"/>
<path d="M3645 7040 c-3 -6 1 -7 9 -4 18 7 21 14 7 14 -6 0 -13 -4 -16 -10z"/>
<path d="M3670 7028 c-16 -7 -20 -12 -12 -15 8 -3 21 2 30 11 19 18 17 19 -18
4z"/>
<path d="M3437 6955 c3 -8 9 -12 14 -9 12 7 11 11 -5 17 -10 4 -13 1 -9 -8z"/>
<path d="M3356 6944 c-7 -17 0 -34 13 -34 5 0 9 11 9 25 0 28 -13 33 -22 9z"/>
<path d="M3397 6910 c-9 -11 -17 -21 -17 -23 0 -1 16 -11 35 -21 44 -24 57
-14 45 34 -7 32 -8 32 -9 8 -1 -24 -5 -28 -28 -28 l-28 1 22 18 c12 10 19 21
16 25 -10 10 -18 7 -36 -14z"/>
<path d="M3000 6911 c0 -6 4 -13 10 -16 6 -3 7 1 4 9 -7 18 -14 21 -14 7z"/>
<path d="M0 6669 c0 -5 5 -7 10 -4 5 3 10 8 10 11 0 2 -4 4 -10 4 -5 0 -10 -5
-10 -11z"/>
<path d="M0 6623 c0 -22 2 -25 10 -13 13 20 13 40 0 40 -5 0 -10 -12 -10 -27z"/>
<path d="M4540 6512 c0 -5 11 -14 25 -20 14 -6 25 -10 25 -8 0 2 -11 11 -25
20 -14 9 -25 13 -25 8z"/>
<path d="M2890 6464 c0 -8 5 -12 10 -9 6 4 8 11 5 16 -9 14 -15 11 -15 -7z"/>
<path d="M4637 6449 c7 -7 15 -10 18 -7 3 3 -2 9 -12 12 -14 6 -15 5 -6 -5z"/>
<path d="M4680 6416 c0 -2 7 -7 16 -10 8 -3 12 -2 9 4 -6 10 -25 14 -25 6z"/>
<path d="M4235 6274 c9 -9 19 -13 23 -10 3 4 0 11 -8 16 -24 15 -33 11 -15 -6z"/>
<path d="M1055 1660 c-3 -5 -1 -10 4 -10 6 0 11 5 11 10 0 6 -2 10 -4 10 -3 0
-8 -4 -11 -10z"/>
<path d="M895 1610 c3 -5 8 -10 11 -10 2 0 4 5 4 10 0 6 -5 10 -11 10 -5 0 -7
-4 -4 -10z"/>
<path d="M807 1544 c6 -15 23 -19 23 -5 0 5 -7 11 -14 14 -10 4 -13 1 -9 -9z"/>
<path d="M730 1070 c0 -5 5 -10 10 -10 6 0 10 5 10 10 0 6 -4 10 -10 10 -5 0
-10 -4 -10 -10z"/>
<path d="M3040 480 c-12 -7 -12 -10 -1 -10 8 0 11 -6 7 -16 -5 -14 -4 -15 8
-5 8 7 12 19 9 27 -6 17 -4 16 -23 4z"/>
<path d="M3370 469 c0 -5 5 -7 10 -4 6 3 10 8 10 11 0 2 -4 4 -10 4 -5 0 -10
-5 -10 -11z"/>
<path d="M2677 403 c-3 -5 9 -25 28 -43 33 -32 35 -32 35 -12 0 12 -6 22 -14
22 -7 0 -20 10 -28 22 -8 12 -17 17 -21 11z"/>
<path d="M4750 380 c0 -5 7 -10 15 -10 8 0 15 5 15 10 0 6 -7 10 -15 10 -8 0
-15 -4 -15 -10z"/>
<path d="M3480 350 c0 -5 5 -10 10 -10 6 0 10 5 10 10 0 6 -4 10 -10 10 -5 0
-10 -4 -10 -10z"/>
<path d="M4745 350 c-4 -6 0 -10 9 -10 8 0 16 -5 18 -11 2 -6 10 -3 20 8 16
17 15 18 -12 20 -16 1 -32 -2 -35 -7z"/>
<path d="M4876 352 c-3 -5 1 -9 9 -9 8 0 15 4 15 9 0 4 -4 8 -9 8 -6 0 -12 -4
-15 -8z"/>
<path d="M4922 353 c23 -49 33 -63 41 -63 5 0 7 7 3 15 -3 8 4 21 17 30 12 8
19 15 17 16 -50 7 -81 8 -78 2z m38 -23 c0 -5 -4 -10 -10 -10 -5 0 -10 5 -10
10 0 6 5 10 10 10 6 0 10 -4 10 -10z"/>
<path d="M320 340 c0 -5 5 -10 10 -10 6 0 10 5 10 10 0 6 -4 10 -10 10 -5 0
-10 -4 -10 -10z"/>
<path d="M3357 343 c-4 -3 -7 -20 -7 -36 0 -25 2 -28 15 -17 18 15 20 34 3 25
-7 -4 -5 0 5 8 9 8 17 17 17 21 0 8 -25 8 -33 -1z"/>
<path d="M4813 329 c-15 -15 -4 -51 15 -47 25 5 26 28 2 28 -19 0 -20 2 -10
15 14 17 9 20 -7 4z"/>
<path d="M4884 315 c2 -7 0 -16 -7 -18 -7 -2 -9 -7 -5 -11 3 -4 18 -2 32 6
l25 13 -25 12 c-21 10 -25 10 -20 -2z"/>
<path d="M3477 303 c-4 -3 -7 -11 -7 -17 0 -6 5 -5 12 2 6 6 9 14 7 17 -3 3
-9 2 -12 -2z"/>
<path d="M5010 284 c0 -8 5 -12 10 -9 6 3 10 10 10 16 0 5 -4 9 -10 9 -5 0
-10 -7 -10 -16z"/>
<path d="M4787 261 c-3 -12 -1 -21 3 -21 15 0 23 21 12 32 -6 6 -11 2 -15 -11z"/>
<path d="M5050 270 c0 -5 5 -10 10 -10 6 0 10 5 10 10 0 6 -4 10 -10 10 -5 0
-10 -4 -10 -10z"/>
<path d="M2830 249 c0 -4 9 -11 21 -14 19 -6 17 -10 -20 -48 -23 -22 -41 -45
-41 -49 0 -15 19 -8 33 13 10 13 17 17 22 9 7 -12 -11 -40 -27 -40 -5 0 -16
-7 -24 -15 -12 -11 -12 -19 -4 -35 7 -13 7 -20 1 -20 -6 0 -8 -6 -5 -14 3 -8
12 -12 20 -9 10 4 12 0 8 -11 -5 -14 6 -16 95 -16 99 0 101 1 98 22 -1 17 4
24 21 26 12 2 22 8 22 13 0 5 -10 10 -22 10 -17 1 -19 2 -5 6 9 2 17 8 17 13
0 5 -8 15 -17 22 -19 14 -29 58 -14 58 5 0 11 -5 13 -12 2 -6 13 7 25 30 11
23 17 42 12 42 -4 0 -10 -4 -13 -9 -9 -14 -48 0 -42 15 3 9 0 11 -11 7 -11 -4
-14 -3 -9 6 6 9 -11 11 -73 9 -45 -1 -81 -5 -81 -9z m170 -189 c0 -5 -4 -10
-10 -10 -5 0 -10 5 -10 10 0 6 5 10 10 10 6 0 10 -4 10 -10z"/>
<path d="M4988 243 c7 -3 16 -2 19 1 4 3 -2 6 -13 5 -11 0 -14 -3 -6 -6z"/>
<path d="M4911 226 c-7 -8 -8 -17 -3 -20 6 -3 12 3 15 14 6 24 4 25 -12 6z"/>
<path d="M4661 216 c-8 -9 -11 -19 -7 -23 9 -9 29 13 24 27 -2 8 -8 7 -17 -4z"/>
<path d="M4714 201 c-18 -5 -20 -8 -9 -18 10 -10 16 -9 26 3 15 18 10 22 -17
15z"/>
<path d="M5077 199 c7 -7 15 -10 18 -7 3 3 -2 9 -12 12 -14 6 -15 5 -6 -5z"/>
<path d="M3050 180 c0 -5 5 -10 10 -10 6 0 10 5 10 10 0 6 -4 10 -10 10 -5 0
-10 -4 -10 -10z"/>
<path d="M4770 181 c0 -6 5 -11 11 -11 5 0 7 -4 4 -10 -3 -5 -1 -10 4 -10 16
0 13 16 -4 30 -10 9 -15 9 -15 1z"/>
<path d="M4930 170 c0 -5 5 -10 11 -10 5 0 7 5 4 10 -3 6 -8 10 -11 10 -2 0
-4 -4 -4 -10z"/>
<path d="M4986 171 c-3 -5 1 -12 10 -15 22 -8 25 -4 9 11 -8 7 -16 9 -19 4z"/>
<path d="M4720 155 c-15 -8 -19 -14 -10 -14 18 -1 46 16 40 23 -3 2 -16 -2
-30 -9z"/>
<path d="M3040 140 c-6 -11 -9 -20 -8 -20 2 0 11 9 21 20 9 11 13 20 7 20 -5
0 -14 -9 -20 -20z"/>
<path d="M2708 137 c9 -10 3 -13 -25 -14 -39 -1 -66 -24 -56 -49 3 -8 -1 -14
-11 -14 -9 0 -16 -6 -16 -12 0 -7 -5 -5 -11 5 -5 9 -17 17 -25 17 -9 0 -12 -5
-8 -11 3 -6 0 -15 -7 -20 -21 -13 -29 -11 -23 6 4 11 2 13 -9 9 -9 -3 -18 -12
-21 -20 -3 -7 -12 -11 -20 -8 -9 3 -22 -1 -31 -9 -13 -14 -1 -15 120 -15 74 0
133 3 130 8 -3 5 -1 11 4 14 6 4 6 18 1 35 -6 23 -4 33 10 46 19 17 17 45 -2
45 -7 0 -7 -5 0 -13z"/>
<path d="M4968 123 c-10 -2 -18 -8 -18 -13 0 -10 38 -1 46 11 5 9 1 10 -28 2z"/>
<path d="M5084 114 c3 -9 6 -18 6 -20 0 -2 5 -4 11 -4 8 0 9 4 0 13 -6 8 -8
17 -4 20 3 4 1 7 -6 7 -8 0 -11 -6 -7 -16z"/>
<path d="M3898 73 c-22 -5 -24 -23 -3 -23 8 0 15 -5 15 -10 0 -6 6 -10 14 -8
8 2 22 -6 30 -17 14 -18 15 -18 16 -3 0 18 -38 69 -49 67 -3 -1 -14 -3 -23 -6z"/>
<path d="M3020 30 c0 -5 5 -10 10 -10 6 0 10 5 10 10 0 6 -4 10 -10 10 -5 0
-10 -4 -10 -10z"/>
<path d="M2090 15 c-10 -12 -10 -15 4 -15 9 0 16 7 16 15 0 8 -2 15 -4 15 -2
0 -9 -7 -16 -15z"/>
</g>
</svg>
